<svg width="144" height="381" viewBox="0 0 144 381" fill="none" xmlns="http://www.w3.org/2000/svg">
<path d="M19.14 378.431C19.1363 378.096 19.1597 377.762 19.21 377.431C19.21 377.101 19.28 376.771 19.29 376.431L19.22 359.241C19.1478 359.054 19.0942 358.859 19.06 358.661C19.0214 358.426 19.0013 358.189 19 357.951C18.9991 357.747 19.0329 357.544 19.1 357.351C19.1675 357.156 19.2728 356.976 19.41 356.821C19.548 356.663 19.7186 356.537 19.91 356.451C20.1259 356.351 20.3622 356.303 20.6 356.311C21.04 356.311 21.48 356.311 21.91 356.371C22.3683 356.42 22.8291 356.444 23.29 356.441C23.6745 356.442 24.0586 356.419 24.44 356.371C24.8454 356.33 25.2526 356.31 25.66 356.311C26.9955 356.299 28.3248 356.494 29.6 356.891C30.7528 357.247 31.8235 357.828 32.75 358.601C33.6443 359.364 34.3611 360.312 34.85 361.381C35.3758 362.564 35.6353 363.847 35.61 365.141C35.6326 366.328 35.4603 367.51 35.1 368.641C34.7992 369.568 34.3315 370.432 33.72 371.191C33.1484 371.891 32.4536 372.481 31.67 372.931C30.8751 373.393 30.025 373.752 29.14 374.001C28.2213 374.264 27.2809 374.445 26.33 374.541C25.3766 374.64 24.4186 374.691 23.46 374.691H22.59V375.521C22.59 375.731 22.59 375.891 22.59 376.021V376.671C22.591 377.007 22.6245 377.342 22.69 377.671C22.7592 378 22.7927 378.335 22.79 378.671C22.7972 378.914 22.7347 379.153 22.61 379.361C22.4941 379.539 22.3404 379.689 22.16 379.801C21.9806 379.916 21.7852 380.004 21.58 380.061C21.3871 380.11 21.1891 380.137 20.99 380.141C20.7525 380.14 20.5166 380.103 20.29 380.031C20.072 379.958 19.8688 379.846 19.69 379.701C19.5186 379.558 19.3789 379.381 19.28 379.181C19.1708 378.947 19.1226 378.689 19.14 378.431V378.431ZM22.61 371.431H23.23H23.84H24.35H24.69C25.6537 371.446 26.616 371.355 27.56 371.161C28.258 371.014 28.9315 370.768 29.56 370.431C30.0686 370.156 30.52 369.786 30.89 369.341C31.2232 368.941 31.4869 368.488 31.67 368.001C31.8509 367.511 31.9717 367 32.03 366.481C32.0899 365.963 32.1199 365.442 32.12 364.921C32.1344 364.189 32.0158 363.461 31.77 362.771C31.5593 362.212 31.2475 361.697 30.85 361.251C30.4797 360.843 30.0394 360.504 29.55 360.251C29.0796 360.006 28.5832 359.815 28.07 359.681C27.5897 359.545 27.0975 359.454 26.6 359.411C26.1815 359.366 25.7609 359.343 25.34 359.341H23.95H22.46C22.46 360.651 22.46 361.801 22.51 362.791C22.56 363.781 22.51 364.661 22.51 365.431C22.51 366.201 22.51 366.861 22.51 367.431C22.51 368.001 22.51 368.511 22.51 368.961C22.51 369.411 22.51 369.821 22.51 370.191L22.61 371.431Z" fill="#73512E"/>
<path d="M37.71 378.521C37.7051 378.183 37.7489 377.846 37.84 377.521C37.9395 377.16 38.1057 376.821 38.33 376.521C38.5 376.231 38.74 375.791 39.03 375.201C39.32 374.611 39.66 373.921 40.03 373.121C40.4 372.321 40.79 371.451 41.22 370.511L42.51 367.621C42.95 366.621 43.39 365.621 43.82 364.621C44.25 363.621 44.67 362.711 45.06 361.851L46.12 359.501C46.44 358.811 46.71 358.241 46.93 357.811C46.9619 357.588 47.0224 357.369 47.11 357.161C47.1987 356.95 47.3202 356.754 47.47 356.581C47.6172 356.403 47.8015 356.26 48.01 356.161C48.2365 356.049 48.4872 355.994 48.74 356.001C49.0405 355.991 49.3399 356.042 49.62 356.151C49.8305 356.247 50.0181 356.387 50.17 356.561C50.3157 356.746 50.4335 356.952 50.52 357.171C50.61 357.401 50.7 357.641 50.79 357.901L51.02 358.551C51.0657 358.717 51.1295 358.878 51.21 359.031C51.88 360.361 52.53 361.711 53.16 363.031C53.79 364.351 54.43 365.771 55.05 367.171C55.67 368.571 56.31 369.991 56.94 371.431C57.57 372.871 58.25 374.331 58.94 375.811L59.22 376.231L59.5 376.631C59.6171 376.789 59.7208 376.956 59.81 377.131C59.9103 377.312 59.9908 377.503 60.05 377.701C60.1171 377.894 60.151 378.097 60.15 378.301C60.1735 378.54 60.1394 378.78 60.0507 379.003C59.9619 379.226 59.8211 379.424 59.64 379.581C59.2804 379.842 58.8441 379.976 58.4 379.961C57.9126 379.963 57.4394 379.797 57.06 379.491C56.892 379.351 56.7557 379.178 56.66 378.981C56.5578 378.788 56.4901 378.578 56.46 378.361C56.19 377.751 55.93 377.181 55.69 376.651L54.99 375.101L54.34 373.641L53.71 372.211H53.04H52.04H50.31H48.52H46.64L44.64 372.271H44.33H44.01C43.73 372.941 43.47 373.591 43.22 374.201C42.97 374.811 42.75 375.391 42.55 375.901L42.01 377.291C41.86 377.691 41.74 378.021 41.66 378.291C41.6 378.511 41.54 378.731 41.46 378.941C41.3915 379.147 41.2827 379.337 41.14 379.501C40.9812 379.679 40.7824 379.816 40.56 379.901C40.2424 380.027 39.901 380.081 39.56 380.061C39.0811 380.082 38.6089 379.941 38.22 379.661C38.052 379.524 37.9183 379.35 37.8298 379.152C37.7412 378.954 37.7002 378.738 37.71 378.521V378.521ZM45.36 369.091H49.44H52.27L50.72 365.711C50.14 364.464 49.4534 363.004 48.66 361.331C48.43 361.841 48.19 362.401 47.93 363.011C47.67 363.621 47.4 364.251 47.11 364.911C46.82 365.571 46.54 366.251 46.25 366.911C45.96 367.571 45.66 368.391 45.36 369.091V369.091Z" fill="#73512E"/>
<path d="M63.76 378.431C63.7584 378.097 63.7784 377.763 63.82 377.431C63.8703 377.1 63.9004 376.766 63.91 376.431L63.85 359.211C63.7731 359.025 63.7194 358.83 63.69 358.631C63.6434 358.397 63.62 358.159 63.62 357.921C63.6225 357.716 63.6597 357.513 63.73 357.321C63.7979 357.128 63.8994 356.949 64.03 356.791C64.17 356.635 64.34 356.509 64.53 356.421C64.7459 356.321 64.9822 356.273 65.22 356.281C65.66 356.281 66.1 356.301 66.54 356.341C66.9983 356.39 67.4591 356.414 67.92 356.411C68.3011 356.413 68.6819 356.389 69.06 356.341C69.4654 356.3 69.8726 356.28 70.28 356.281C71.6155 356.269 72.9448 356.464 74.22 356.861C75.3758 357.217 76.4497 357.798 77.38 358.571C78.2743 359.334 78.9911 360.282 79.48 361.351C80.0106 362.56 80.2634 363.872 80.22 365.191C80.2426 366.378 80.0703 367.56 79.71 368.691C79.4053 369.616 78.938 370.48 78.33 371.241C77.7561 371.939 77.0618 372.528 76.28 372.981C75.4841 373.441 74.6343 373.8 73.75 374.051C72.8311 374.313 71.8907 374.494 70.94 374.591C69.9832 374.69 69.0219 374.74 68.06 374.741H67.22V375.571C67.22 375.781 67.22 375.941 67.22 376.071C67.22 376.201 67.22 376.311 67.22 376.401V376.721C67.2156 377.057 67.2492 377.393 67.32 377.721C67.3809 378.051 67.411 378.386 67.41 378.721C67.4171 378.964 67.3547 379.203 67.23 379.411C67.1177 379.588 66.9674 379.739 66.79 379.851C66.6081 379.968 66.409 380.056 66.2 380.111C66.0104 380.16 65.8158 380.187 65.62 380.191C65.3792 380.19 65.14 380.152 64.91 380.081C64.695 380.008 64.4951 379.896 64.32 379.751C64.1484 379.606 64.0059 379.429 63.9 379.231C63.7878 378.98 63.7397 378.705 63.76 378.431V378.431ZM67.23 371.431H67.85H68.46H68.97H69.31C70.2736 371.445 71.2359 371.355 72.18 371.161C72.878 371.014 73.5514 370.768 74.18 370.431C74.6886 370.156 75.14 369.786 75.51 369.341C75.8432 368.941 76.1068 368.488 76.29 368.001C76.4709 367.511 76.5917 367 76.65 366.481C76.7099 365.963 76.7399 365.442 76.74 364.921C76.7544 364.189 76.6358 363.461 76.39 362.771C76.1759 362.212 75.8607 361.696 75.46 361.251C75.0912 360.846 74.6547 360.507 74.17 360.251C73.6989 360.008 73.2026 359.817 72.69 359.681C72.2061 359.546 71.7106 359.455 71.21 359.411C70.7915 359.366 70.3709 359.343 69.95 359.341H68.57H67.08C67.08 360.651 67.08 361.801 67.08 362.791C67.08 363.781 67.08 364.661 67.08 365.431C67.08 366.201 67.08 366.861 67.08 367.431C67.08 368.001 67.08 368.511 67.08 368.961C67.08 369.411 67.08 369.821 67.08 370.191C67.08 370.561 67.22 371.081 67.22 371.441L67.23 371.431Z" fill="#73512E"/>
<path d="M84.7601 377.991C84.76 377.809 84.7835 377.627 84.83 377.451C84.83 377.261 84.9201 377.081 84.9701 376.921L85.1101 376.441L84.7601 358.541C84.7452 358.154 84.8028 357.767 84.9301 357.401C85.0244 357.165 85.1797 356.958 85.3801 356.801C85.562 356.671 85.7768 356.595 86.0001 356.581C86.2301 356.581 86.4701 356.581 86.7101 356.581H94.6001L95.2 356.491H95.6801C95.9904 356.484 96.3001 356.521 96.6001 356.601C96.805 356.655 96.9937 356.758 97.1501 356.901C97.2865 357.038 97.3803 357.212 97.4201 357.401C97.4716 357.634 97.4951 357.872 97.4901 358.111C97.4997 358.42 97.4522 358.729 97.3501 359.021C97.2681 359.228 97.1337 359.411 96.9601 359.551C96.7898 359.68 96.5907 359.766 96.38 359.801C96.149 359.842 95.9147 359.862 95.6801 359.861H95.2201C95.0401 359.861 94.8501 359.861 94.6501 359.861H88.2201V364.611H96.01H96.4301L97.0501 364.551C97.2901 364.551 97.55 364.551 97.83 364.551C98.0803 364.548 98.3276 364.606 98.5501 364.721C98.7526 364.821 98.9329 364.96 99.08 365.131C99.2244 365.284 99.3367 365.464 99.4101 365.661C99.4829 365.832 99.5203 366.015 99.52 366.201C99.5394 366.427 99.5009 366.653 99.4082 366.86C99.3154 367.066 99.1715 367.246 98.9901 367.381C98.5835 367.645 98.1043 367.774 97.6201 367.751H88.2201V376.751C89.2201 376.751 90.2201 376.751 91.2201 376.751C92.2201 376.751 93.2201 376.801 94.3501 376.801C94.6242 376.801 94.898 376.784 95.1701 376.751L95.89 376.651L96.5301 376.571C96.7664 376.555 97.0037 376.555 97.2401 376.571C97.5183 376.568 97.7962 376.591 98.07 376.641C98.3072 376.675 98.5352 376.757 98.7401 376.881C98.9271 376.99 99.0796 377.149 99.1801 377.341C99.3006 377.569 99.3592 377.824 99.3501 378.081C99.3647 378.428 99.2889 378.772 99.13 379.081C98.9851 379.315 98.7724 379.5 98.52 379.611C98.2426 379.725 97.9491 379.796 97.6501 379.821C97.3301 379.821 96.9901 379.821 96.6501 379.821H86.5401C86.3004 379.823 86.0616 379.793 85.83 379.731C85.6257 379.673 85.4352 379.575 85.27 379.441C85.1062 379.296 84.9793 379.115 84.9001 378.911C84.7817 378.62 84.7337 378.304 84.7601 377.991Z" fill="#73512E"/>
<path d="M104.64 378.021C104.64 377.801 104.64 377.581 104.64 377.371C104.64 377.161 104.64 376.971 104.7 376.791V364.251C104.7 363.421 104.7 362.601 104.7 361.791C104.7 360.981 104.7 360.171 104.7 359.331C104.636 359.142 104.589 358.948 104.56 358.751C104.513 358.517 104.49 358.279 104.49 358.041C104.489 357.827 104.523 357.614 104.59 357.411C104.649 357.205 104.752 357.015 104.89 356.851C105.027 356.687 105.197 356.554 105.39 356.461C105.605 356.358 105.841 356.306 106.08 356.311C106.504 356.31 106.928 356.333 107.35 356.381C107.831 356.436 108.316 356.463 108.8 356.461C109.25 356.461 109.7 356.461 110.15 356.391C110.6 356.321 111.08 356.321 111.59 356.311C112.966 356.297 114.34 356.448 115.68 356.761C116.806 357.011 117.87 357.483 118.81 358.151C119.665 358.773 120.352 359.598 120.81 360.551C121.304 361.643 121.543 362.833 121.51 364.031C121.532 365.19 121.353 366.344 120.98 367.441C120.659 368.371 120.201 369.247 119.62 370.041C119.096 370.744 118.469 371.364 117.76 371.881C117.144 372.341 116.472 372.721 115.76 373.011C115.847 373.532 115.992 374.042 116.19 374.531C116.369 374.986 116.623 375.409 116.94 375.781C117.235 376.137 117.599 376.43 118.01 376.641C118.439 376.853 118.912 376.959 119.39 376.951C119.731 376.95 120.07 376.889 120.39 376.771C120.728 376.63 121.011 376.385 121.2 376.071C121.341 375.869 121.513 375.69 121.71 375.541C121.933 375.378 122.205 375.297 122.48 375.311C122.707 375.298 122.935 375.33 123.149 375.406C123.364 375.481 123.561 375.599 123.73 375.751C123.879 375.9 123.996 376.078 124.073 376.274C124.151 376.471 124.187 376.68 124.18 376.891C124.178 377.327 124.054 377.753 123.82 378.121C123.558 378.519 123.218 378.859 122.82 379.121C122.322 379.434 121.779 379.67 121.21 379.821C120.528 380 119.825 380.087 119.12 380.081C118.464 380.091 117.81 379.986 117.19 379.771C116.637 379.581 116.117 379.304 115.65 378.951C115.202 378.61 114.799 378.213 114.45 377.771C114.109 377.336 113.807 376.871 113.55 376.381C113.307 375.914 113.1 375.429 112.93 374.931C112.782 374.488 112.658 374.038 112.56 373.581H110.34H109.27H108.11V375.761C108.129 376.222 108.189 376.681 108.29 377.131C108.39 377.581 108.441 378.04 108.44 378.501C108.446 378.758 108.388 379.013 108.27 379.241C108.16 379.436 108.01 379.607 107.83 379.741C107.652 379.871 107.452 379.969 107.24 380.031C106.773 380.172 106.271 380.147 105.82 379.961C105.58 379.863 105.362 379.717 105.18 379.531C104.997 379.339 104.852 379.116 104.75 378.871C104.66 378.597 104.623 378.309 104.64 378.021ZM108.15 370.351H109.06H110.06H110.92H111.4C112.529 370.385 113.653 370.198 114.71 369.801C115.466 369.5 116.135 369.016 116.659 368.393C117.182 367.77 117.543 367.028 117.71 366.231C117.899 365.438 117.993 364.626 117.99 363.811C118.005 363.178 117.89 362.548 117.65 361.961C117.439 361.482 117.125 361.055 116.73 360.711C116.348 360.38 115.911 360.116 115.44 359.931C114.969 359.741 114.48 359.601 113.98 359.511C113.501 359.424 113.017 359.37 112.53 359.351C112.06 359.351 111.64 359.351 111.28 359.351C110.92 359.351 110.28 359.351 109.73 359.351C109.18 359.351 108.64 359.351 108.03 359.351C108.03 359.731 108.03 360.081 108.03 360.351C108.03 360.621 108.03 360.961 108.03 361.251C108.03 361.541 108.03 361.851 108.03 362.151V363.151C108.03 363.831 108.03 364.461 108.03 365.041C108.03 365.621 108.03 366.191 108.03 366.751C108.03 367.311 108.03 367.861 108.03 368.421C108.03 368.981 108.12 369.741 108.15 370.351V370.351Z" fill="#73512E"/>
<path d="M12.968 80.3369C17.9012 84.7121 21.9142 90.0254 24.7731 95.9672C27.6321 101.909 29.2798 108.36 29.6203 114.945C33.141 175.932 22.088 247.074 14.226 316H129.012C121.212 248.179 110.373 179.568 113.971 114.7C114.651 101.42 120.558 88.9479 130.401 80.0071C133.957 76.7259 136.923 72.8574 139.168 68.5706C143.77 60.1332 143.586 47.6766 138.83 38.8864C134.919 31.661 128.192 27.1585 120.368 26.5219C119.724 26.4682 119.072 26.4375 118.42 26.4375C117.768 26.4375 117.054 26.4759 116.387 26.5372C115.649 20.8853 113.522 15.5042 110.197 10.8744C105.349 4.33162 98.5228 0.726562 90.9676 0.726562C90.4076 0.726562 89.8324 0.726564 89.2648 0.787927C85.7409 1.06095 82.3208 2.10863 79.2487 3.85619C76.1766 5.60374 73.5282 8.00805 71.4926 10.8974C69.4547 8.00861 66.8047 5.60484 63.7315 3.85741C60.6583 2.10999 57.2374 1.06194 53.7128 0.787927C53.1529 0.787927 52.5776 0.726562 52.0177 0.726562C44.4624 0.726562 37.6281 4.33162 32.7881 10.8744C29.4632 15.5042 27.3366 20.8853 26.5982 26.5372C25.9309 26.4759 25.2559 26.4375 24.5579 26.4375C23.8599 26.4375 23.2616 26.4375 22.6096 26.5219C14.7936 27.1585 8.03601 31.661 4.15482 38.8864C-0.600782 47.6766 -0.74652 60.1563 3.81732 68.5706C6.13958 73.0082 9.23886 76.9934 12.968 80.3369Z" fill="white"/>
<path d="M14.4709 315.954H128.859C121.215 249.454 110.651 182.243 113.724 118.533C111.645 124.816 107.785 134.179 102.97 136.19C99.1935 137.764 94.0264 135.288 90.4644 135.815C85.8782 136.488 83.7533 140.355 78.5021 140.852C70.8584 141.617 69.429 137.841 63.6045 135.005C57.6501 132.108 54.5314 133.835 48.8292 135.234C41.8811 136.939 39.3281 135.433 36.477 129.723C33.5648 123.899 32.7164 115.292 29.2996 110.767C29.5442 112.364 29.72 113.977 29.8117 115.598C33.3202 176.365 22.298 247.268 14.4709 315.954Z" fill="#FBB03B"/>
<path d="M123.447 278.546C118.745 278.283 114.064 279.343 109.933 281.603C108.765 282.285 107.637 283.032 106.554 283.843C105.391 284.718 104.15 285.486 102.847 286.136C99.4764 287.665 97.3285 287.091 94.6379 285.44C92.8296 284.224 90.7903 283.392 88.6468 282.998C86.5034 282.603 84.3016 282.654 82.1787 283.147C79.6267 283.634 77.1226 284.345 74.6955 285.272C73.7818 285.668 72.8957 286.126 72.0431 286.64C70.868 287.45 69.5506 288.031 68.1602 288.353C65.3855 288.742 62.993 287.282 60.5165 285.67C58.659 284.47 56.771 283.193 54.6537 282.673C50.8319 281.748 47.2088 282.582 43.6163 283.285C42.2469 283.568 40.8642 283.783 39.4734 283.927C36.6093 284.244 33.7354 283.423 31.4704 281.641L30.943 281.259C29.6551 280.226 28.2201 279.392 26.6855 278.783C24.1585 277.95 21.4137 278.075 18.973 279.134C18.7208 279.653 18.3703 280.117 17.9411 280.503C17.5895 283.412 17.2353 286.327 16.8786 289.247C17.2034 289.29 17.5251 289.354 17.8417 289.438C17.8796 289.264 17.9612 289.102 18.0789 288.969C18.1966 288.835 18.3465 288.733 18.5144 288.674C20.4711 288.009 25.7606 290.844 29.6971 292.725C31.2946 293.591 32.9808 294.283 34.7266 294.789C36.1729 294.933 37.6333 294.8 39.03 294.399L39.8861 294.208C42.699 293.604 45.7489 293.145 49.2267 294.147C51.0744 294.725 52.88 295.43 54.6308 296.256C57.0615 297.319 59.5992 298.373 62.4503 298.549C62.8325 298.549 63.2147 298.549 63.5969 298.549C66.461 298.315 69.2755 297.663 71.9514 296.615C73.7935 295.973 75.6739 295.285 77.5925 294.804C80.7876 293.94 84.1283 293.755 87.3993 294.261C88.9341 294.614 90.4277 295.126 91.8556 295.79C93.0211 296.308 94.2279 296.727 95.4634 297.043C100.439 298.19 105.194 295.851 109.658 293.443C114.833 290.653 119.549 287.848 125.037 289.285C125.47 289.028 125.925 288.81 126.397 288.635C126.069 285.945 125.732 283.285 125.404 280.571C125.35 280.113 125.297 279.646 125.236 279.18C124.593 279.085 123.983 278.839 123.455 278.462C123.455 278.49 123.453 278.518 123.447 278.546V278.546Z" fill="#8C6338"/>
<path d="M105.301 158.479C103.6 158.96 101.987 159.711 100.524 160.703C99.8134 161.191 99.132 161.719 98.4827 162.285C97.5684 163.121 96.5387 163.821 95.4252 164.364C92.6735 165.503 90.0746 164.295 87.3764 162.95C85.1444 161.834 82.8743 160.657 80.4206 160.726C77.3632 160.833 74.7184 162.43 72.1425 163.913C68.7564 165.878 65.4237 167.651 61.3343 165.595C60.7152 165.281 60.1114 164.945 59.5228 164.616C57.2985 163.355 55.2117 162.132 52.5517 161.918C49.1809 161.643 46.2533 162.629 43.5245 163.699C41.3231 164.555 39.7027 165.044 37.5319 164.334C35.9857 163.757 34.519 162.987 33.1673 162.041L33.0527 161.964C31.8373 161.2 30.622 160.359 29.3608 159.671C29.269 162.219 29.162 164.767 29.0397 167.315C29.292 167.315 29.5366 167.315 29.8041 167.315C32.0972 167.536 33.6259 168.843 35.3381 170.196C35.8273 170.579 36.3242 170.961 36.8669 171.358C38.1218 172.316 39.6101 172.92 41.1773 173.108C42.7445 173.296 44.3335 173.062 45.7794 172.428C46.4932 172.095 47.1851 171.718 47.8509 171.297C48.6498 170.761 49.4968 170.301 50.3809 169.921C53.0639 168.866 55.9455 169.241 58.8348 170.984L60.0349 171.748C61.77 172.826 63.3676 173.789 65.225 173.858C66.2478 173.879 67.2613 173.659 68.1831 173.216C68.9474 172.856 69.7118 172.451 70.3768 172.046C71.7508 171.139 73.2638 170.462 74.856 170.043C77.7224 169.417 80.2678 169.898 83.2259 171.572C86.5662 173.475 89.7918 175.195 94.0417 173.483C95.5508 172.816 96.9985 172.018 98.368 171.098C101.67 169.004 104.972 166.757 108.702 167.628C109.72 167.902 110.711 168.271 111.66 168.729C112.615 169.192 113.624 169.534 114.664 169.745C114.496 166.092 114.359 162.446 114.252 158.807C113.449 158.761 112.654 158.654 111.874 158.54C109.749 158.211 107.647 157.852 105.301 158.479Z" fill="#8C6338"/>
<path d="M115.551 198.921C114.358 199.884 113.079 200.733 111.729 201.459L110.2 202.361C109.398 202.843 108.618 203.393 107.861 203.89C106.755 204.717 105.56 205.419 104.3 205.984C100.707 207.437 97.7489 206.068 94.7067 204.547C93.6977 204.043 92.6582 203.508 91.611 203.08C86.5432 200.993 82.3086 203.324 78.0205 205.434C74.8254 207.009 71.4393 208.545 67.9079 207.949C66.1455 207.573 64.4411 206.964 62.8401 206.137C60.6693 205.113 58.4832 204.02 55.8538 203.844C51.7186 203.554 48.7528 204.922 45.2214 206.412L45.0686 206.473C42.1487 207.696 40.4823 207.459 37.9293 205.533C37.3866 205.121 36.8669 204.654 36.3624 204.203C35.4768 203.359 34.5204 202.591 33.5036 201.91C32.5393 201.22 31.442 200.738 30.2814 200.494C29.1208 200.251 27.9223 200.252 26.7619 200.496C26.4969 203.554 26.2166 206.626 25.9211 209.714C27.0609 209.693 28.2001 209.783 29.3225 209.982C31.4857 210.449 33.5385 211.329 35.3687 212.573C38.6326 214.622 42.248 216.571 46.5591 216.571C48.592 216.498 50.6056 216.148 52.5441 215.531C54.4939 214.903 56.5055 214.485 58.5444 214.285C60.9778 214.169 63.4116 214.506 65.7218 215.279C66.2569 215.455 66.7996 215.661 67.327 215.852C68.4312 216.313 69.5897 216.632 70.7743 216.8C71.0517 216.819 71.3301 216.819 71.6075 216.8C73.4689 216.677 75.2875 216.186 76.958 215.355C78.0848 214.842 79.2471 214.41 80.4359 214.064C85.9623 212.627 91.2746 213.964 95.9449 215.164C98.9273 215.983 102.109 215.642 104.85 214.209L105.744 213.773C109.62 211.878 113.22 209.951 117.301 208.614C117.006 205.307 116.723 201.994 116.453 198.677L116.147 198.769L115.551 198.921Z" fill="#8C6338"/>
<path d="M109.436 239.746C106.887 240.738 104.396 241.874 101.976 243.148C100.205 244.046 98.3857 244.845 96.5259 245.54C93.0939 246.748 90.3498 245.915 87.5063 244.967C85.8722 244.362 84.1896 243.896 82.4768 243.576C78.2957 242.918 73.7324 243.988 70.5756 244.944C69.6965 245.211 68.8252 245.555 67.9767 245.884C66.6621 246.449 65.2838 246.852 63.8721 247.084C61.021 247.428 58.5215 245.968 56.1901 244.501L55.6551 244.172C52.1863 241.88 48.1661 240.56 44.0137 240.35C40.5834 240.162 37.1621 240.857 34.0769 242.368C32.4488 243.132 31.1494 243.736 29.3455 242.697C28.6088 242.256 27.9084 241.758 27.2511 241.206C26.9071 240.931 26.5555 240.648 26.2039 240.388C25.2728 239.659 24.2717 239.024 23.2152 238.493C23.2152 238.493 23.2152 238.439 23.2152 238.416L22.9324 238.37C22.5655 241.611 22.1935 244.855 21.8164 248.101C21.8164 248.2 21.8547 248.292 21.8699 248.384L22.0075 247.489C23.1541 247.971 24.1478 248.452 25.1185 248.919C26.4241 249.594 27.7941 250.137 29.2079 250.539C30.5847 250.901 32.0224 250.969 33.4272 250.738C34.4209 250.577 35.3764 250.379 36.3012 250.172C39.9626 249.362 43.3334 248.483 47.4228 249.882C49.3566 250.601 51.2432 251.441 53.0715 252.397C54.9253 253.372 56.8712 254.16 58.8807 254.751C62.8631 255.829 66.7613 255.156 70.3462 254.2L71.5616 253.864C75.7962 252.664 79.7174 251.395 84.1813 252.175C85.5801 252.419 86.9942 252.763 88.3624 253.084C90.6676 253.721 93.0492 254.037 95.4405 254.025C98.3069 253.918 100.653 252.771 103.084 251.51C103.978 251.051 104.903 250.57 105.844 250.134C111.271 247.596 115.612 248.307 121.368 249.316H121.597L121.643 249.966H121.712C121.269 246.144 120.825 242.322 120.405 238.5H119.717C116.315 238.531 113.12 238.416 109.436 239.746Z" fill="#8C6338"/>
<path d="M86.7955 45.1073C86.612 45.0768 86.4286 45.0385 86.2451 44.9927C81.3455 43.762 79.0295 36.2712 80.0231 30.3244C81.1926 23.2999 85.3737 15.9696 91.8097 16.4664C91.9932 16.4664 92.1766 16.4664 92.3524 16.5276C95.4099 16.9938 97.2368 19.3099 98.2228 21.1673C100.371 25.2261 100.753 31.3869 99.0789 34.9259C96.48 40.3224 91.5345 45.8258 86.7955 45.1073Z" fill="#FFC9C9"/>
<path d="M92.2378 17.2843C94.9895 17.697 96.6482 19.822 97.5883 21.5265C99.8815 25.8681 99.8127 31.6773 98.4215 34.5743C95.9526 39.7414 91.3052 45.0079 86.956 44.3506C86.7958 44.3293 86.6373 44.296 86.4821 44.2512C83.738 43.5633 82.2933 40.7733 81.6818 39.1758C80.6569 36.3893 80.3622 33.3869 80.8257 30.4543C81.3447 27.1006 82.6203 23.909 84.5559 21.1214C86.6273 18.3238 89.058 17.0167 91.7944 17.2308C91.9626 17.2308 92.1231 17.2307 92.2836 17.2843M92.5129 15.7555C92.3142 15.7249 92.1155 15.702 91.9167 15.6867C84.6934 15.1287 80.4512 23.4298 79.3199 30.2097C78.3033 36.2865 80.5735 44.3506 86.1075 45.7417C86.3115 45.796 86.5181 45.8394 86.7266 45.8717C92.039 46.6743 97.1679 40.7657 99.8126 35.2393C102.457 29.7129 100.493 16.9862 92.5129 15.7784V15.7555Z" fill="#8C6338"/>
<path d="M70.8584 103.895C60.0578 103.895 52.4371 100.906 48.2101 95.0208C43.9831 89.1352 44.3195 81.5374 45.917 76.8594C48.7069 68.6348 61.1662 53.4468 71.5845 53.4468C76.1708 53.4468 81.7736 56.6036 87.3611 62.3517C91.8174 66.9379 95.8838 72.9 97.252 76.8747C98.8954 81.6291 99.1936 88.7759 95.1271 94.5546C90.9155 100.54 82.7749 103.773 71.5769 103.91H70.866L70.8584 103.895Z" fill="#FFC9C9"/>
<path d="M71.5769 54.211C81.2538 54.211 93.8888 69.4984 96.5259 77.1421C98.1005 81.7283 98.3986 88.6077 94.4927 94.1264C90.4339 99.905 82.4997 103.024 71.5616 103.161H70.8584C60.3177 103.161 52.9033 100.287 48.8369 94.608C44.7704 88.9287 45.1068 81.6137 46.6355 77.1345C49.2955 69.2997 61.6554 54.2416 71.5769 54.2416M71.5769 52.7129C60.6311 52.7129 47.9731 68.4207 45.1832 76.6453C41.9728 86.1235 44.0366 104.69 70.8584 104.69H71.5769C99.0942 104.354 101.265 86.1923 97.9705 76.6453C95.364 69.0933 82.5226 52.7129 71.5769 52.7129V52.7129Z" fill="#8C6338"/>
<path d="M112.967 70.5075C112.481 70.5066 111.996 70.4476 111.523 70.3317C106.7 69.0857 104.827 61.6408 106.172 55.7399C107.701 49.0822 112.088 41.9201 118.196 41.9201C118.417 41.9088 118.639 41.9088 118.861 41.9201C120.108 42.0481 121.301 42.4951 122.325 43.218C123.349 43.9409 124.17 44.9155 124.708 46.0477C127.108 50.481 126.818 56.9858 125.037 60.2649C122.277 65.4091 117.477 70.5075 112.967 70.5075Z" fill="#FFC9C9"/>
<path d="M118.196 41.186V42.7148H118.8C121.032 42.8982 122.797 44.1518 124.036 46.4449C126.329 50.6642 126.053 56.8327 124.364 59.9436C120.688 66.7159 115.956 69.7505 112.967 69.7505C112.545 69.7501 112.124 69.6987 111.714 69.5976C109.046 68.902 107.777 66.158 107.265 64.591C106.402 61.7778 106.281 58.7892 106.914 55.9154C107.635 52.6476 109.034 49.5673 111.018 46.8729C112.494 44.962 114.932 42.6918 118.196 42.6918V41.1631M118.196 41.1631C111.385 41.1631 106.898 49.082 105.423 55.5791C104.047 61.6253 105.859 69.6588 111.332 71.0729C111.866 71.2133 112.416 71.2827 112.967 71.2792C117.928 71.2792 122.904 65.814 125.709 60.6698C128.805 54.9676 127.391 41.8816 118.922 41.1937C118.677 41.1937 118.433 41.1937 118.196 41.1937V41.1631Z" fill="#8C6338"/>
<path d="M55.2882 45.2831C50.5109 45.6729 45.9552 39.8408 43.7462 34.2609C42.3092 30.6378 43.1194 24.5228 45.5425 20.6169C46.6508 18.8283 48.5999 16.6422 51.7186 16.3899C51.8944 16.3899 52.0778 16.3899 52.2613 16.3899C58.7049 16.3364 62.3815 23.9419 63.0694 31.0352C63.6427 37.0355 60.8222 44.3429 55.8462 45.2372C55.6617 45.2714 55.4754 45.2944 55.2882 45.306V45.2831Z" fill="#FFC9C9"/>
<path d="M51.7797 17.1618C51.9402 17.1618 52.1084 17.1618 52.2689 17.1618C55.013 17.1618 57.3519 18.6141 59.2246 21.5417C60.9534 24.4598 61.9987 27.7317 62.2821 31.1116C62.5422 34.0707 62.0395 37.047 60.8222 39.7566C60.1037 41.2853 58.4756 43.9912 55.6933 44.4957L55.204 44.5568C50.8166 44.9161 46.5437 39.3362 44.4341 34.0085C43.2493 31.0275 43.578 25.2259 46.1692 21.0525C47.1858 19.4091 48.9821 17.4141 51.7568 17.1848M51.6345 15.656C43.5933 16.3134 40.7193 28.7879 43.0124 34.5665C45.3055 40.3452 49.9758 46.506 55.3263 46.0321C55.5392 46.0153 55.751 45.9873 55.9608 45.948C61.5789 44.939 64.3688 37.0507 63.8032 30.9205C63.1458 24.1023 59.4769 15.5261 52.2307 15.5872C52.0319 15.5872 51.8332 15.5872 51.6345 15.5872V15.656Z" fill="#8C6338"/>
<path d="M30.1098 70.5073C25.6001 70.5073 20.7998 65.3784 18.0405 60.2953C16.2595 57.0162 15.9614 50.5114 18.3691 46.0781C18.9073 44.9459 19.7281 43.9713 20.7522 43.2484C21.7764 42.5255 22.9695 42.0785 24.2166 41.9505C24.4381 41.939 24.66 41.939 24.8816 41.9505C30.9965 41.9505 35.3916 49.1126 36.9051 55.7703C38.2504 61.6712 36.3777 69.1085 31.5545 70.3621C31.0817 70.478 30.5967 70.537 30.1098 70.5379V70.5073Z" fill="#FFC9C9"/>
<path d="M24.8816 42.715C28.1454 42.715 30.5837 45.0081 32.059 46.8961C34.0438 49.5904 35.4421 52.6708 36.1637 55.9386C36.7963 58.8124 36.6751 61.8009 35.812 64.6141C35.2999 66.1811 34.031 68.9252 31.3634 69.6208C30.9532 69.7219 30.5323 69.7732 30.1098 69.7736C27.0524 69.7736 22.3897 66.7162 18.7131 59.9668C17.0238 56.8558 16.7563 50.6873 19.0418 46.468C20.28 44.1749 22.0457 42.9213 24.2777 42.7379C24.4764 42.7379 24.6828 42.7379 24.8816 42.7379M24.8816 41.2092C24.6446 41.2092 24.4 41.2092 24.1554 41.2092C15.6862 41.8971 14.2721 54.9678 17.3678 60.6853C20.1577 65.8295 25.1491 71.2947 30.1098 71.2947C30.6618 71.2982 31.2118 71.2288 31.7456 71.0884C37.2185 69.6743 39.0224 61.6408 37.6542 55.5946C36.1789 49.0975 31.6921 41.1786 24.8816 41.1786V41.2092Z" fill="#8C6338"/>
<path d="M53.9582 112.899C54.2049 113.196 54.5195 113.43 54.8754 113.58C55.2117 113.763 55.5633 113.939 55.915 114.092C56.6258 114.413 57.3367 114.711 58.0705 114.971C59.5164 115.499 60.9885 115.953 62.4809 116.331C65.4513 117.087 68.4974 117.505 71.5616 117.577C74.6128 117.652 77.6594 117.297 80.6117 116.522C83.5985 115.705 86.4604 114.487 89.1191 112.899C86.7476 115.018 83.9739 116.637 80.9633 117.661C77.9277 118.69 74.7354 119.179 71.531 119.106C68.3414 119.024 65.1812 118.473 62.1522 117.47C60.6446 116.979 59.1777 116.371 57.7647 115.651C57.0691 115.284 56.3736 114.887 55.7162 114.466C55.3875 114.245 55.0589 114.015 54.7455 113.771C54.4166 113.548 54.1464 113.249 53.9582 112.899V112.899Z" fill="#8C6338"/>
<path d="M12.7128 81.6978C17.5438 85.9956 21.4749 91.2086 24.2786 97.0352C27.0824 102.862 28.7032 109.186 29.0473 115.643C31.9214 165.427 24.9121 223.007 18.1398 278.691C16.6111 291.013 15.1206 303.487 13.7065 315.954H15.2352C16.6493 303.548 18.1551 291.135 19.6533 278.882C26.4332 223.121 33.4501 165.473 30.5685 115.552C30.2091 108.892 28.534 102.369 25.6398 96.3607C22.7456 90.352 18.6898 84.9761 13.7065 80.5436C10.0647 77.2628 7.03633 73.3596 4.76335 69.0169C0.330006 60.8458 0.475238 48.7152 5.09967 40.1619C8.86801 33.1985 15.3499 28.8493 22.8865 28.2378C23.5133 28.1919 24.1401 28.1613 24.7592 28.1613C25.3784 28.1613 25.9899 28.1613 26.7313 28.2531C26.9258 28.2686 27.1188 28.2091 27.2709 28.0869C27.4229 27.9647 27.5225 27.789 27.5492 27.5957C28.2565 22.0789 30.3265 16.825 33.5724 12.3083C38.258 5.98699 44.8392 2.5091 52.1237 2.5091C52.6664 2.5091 53.2167 2.50911 53.7594 2.57026C57.1587 2.84231 60.4568 3.85753 63.4206 5.54418C66.3845 7.23082 68.9418 9.54775 70.9119 12.3313C70.9829 12.4277 71.0756 12.506 71.1825 12.56C71.2894 12.614 71.4074 12.6421 71.5272 12.6421C71.6469 12.6421 71.765 12.614 71.8719 12.56C71.9788 12.506 72.0714 12.4277 72.1425 12.3313C74.1134 9.5468 76.6719 7.2293 79.6371 5.54261C82.6024 3.85592 85.902 2.84122 89.3026 2.57026C97.2061 2.01991 104.468 5.53601 109.497 12.3389C112.738 16.8583 114.808 22.1109 115.52 27.6263C115.547 27.8195 115.647 27.9953 115.799 28.1175C115.951 28.2397 116.144 28.2991 116.338 28.2836C117.61 28.1744 118.889 28.1744 120.16 28.2836C127.689 28.8951 134.171 33.2444 137.947 40.2078C142.533 48.7611 142.717 60.8916 138.283 69.0627C136.081 73.255 133.181 77.0417 129.707 80.2608C124.762 84.7275 120.748 90.1269 117.895 96.1489C115.042 102.171 113.407 108.697 113.082 115.353C110.116 168.859 117.095 225.751 123.844 280.801C125.266 292.427 126.711 304.19 128.071 316H129.6C128.24 304.129 126.787 292.304 125.35 280.61C118.616 225.629 111.645 168.775 114.603 115.437C114.917 108.981 116.503 102.65 119.269 96.8072C122.035 90.9649 125.928 85.7264 130.724 81.392C134.343 78.0468 137.362 74.107 139.652 69.743C144.314 61.1439 144.169 48.4018 139.315 39.4281C135.287 31.9985 128.362 27.3664 120.305 26.709C119.182 26.6115 118.052 26.5987 116.927 26.6708C116.103 21.1658 113.975 15.9376 110.72 11.4217C105.37 4.20601 97.6342 0.452951 89.1956 1.06445C85.7456 1.33429 82.3909 2.32638 79.349 3.97634C76.3072 5.62631 73.6462 7.89729 71.5387 10.642C69.4311 7.89729 66.7701 5.62631 63.7282 3.97634C60.6864 2.32638 57.3317 1.33429 53.8817 1.06445C53.2932 1.06445 52.7046 1.00331 52.1313 1.00331C44.35 1.00331 37.3255 4.70285 32.3571 11.4217C29.0941 15.9388 26.9559 21.1692 26.1198 26.6785C24.9943 26.6065 23.8649 26.6192 22.7413 26.7167C14.6925 27.374 7.75968 32.0061 3.7391 39.4358C-1.11465 48.4095 -1.25988 61.1515 3.40277 69.743C5.7705 74.2499 8.92322 78.2982 12.7128 81.6978V81.6978Z" fill="#8C6338"/>
</svg>
