<svg width="145" height="380" viewBox="0 0 145 380" fill="none" xmlns="http://www.w3.org/2000/svg">
<path d="M28.15 376.916C28.15 376.696 28.15 376.476 28.15 376.266C28.15 376.056 28.15 375.865 28.21 375.685V360.685C28.21 359.885 28.21 359.066 28.21 358.226C28.1459 358.037 28.099 357.843 28.07 357.646C28.0234 357.412 28 357.174 28 356.935C27.9994 356.721 28.0332 356.509 28.1 356.305C28.1595 356.1 28.2617 355.909 28.4 355.745C28.537 355.581 28.7075 355.448 28.9 355.356C29.1151 355.252 29.3514 355.201 29.59 355.206C30.0144 355.204 30.4384 355.228 30.86 355.276C31.3414 355.33 31.8255 355.357 32.31 355.356C32.76 355.356 33.21 355.356 33.66 355.286C34.11 355.216 34.59 355.216 35.1 355.206C36.4764 355.191 37.8496 355.342 39.19 355.656C40.3157 355.905 41.38 356.378 42.32 357.046C43.175 357.668 43.8622 358.492 44.32 359.446C44.814 360.537 45.0533 361.727 45.02 362.926C45.0423 364.084 44.863 365.238 44.49 366.336C44.1692 367.265 43.7107 368.142 43.13 368.935C42.6083 369.641 41.9809 370.261 41.27 370.776C40.6539 371.235 39.9819 371.615 39.27 371.906C39.3574 372.426 39.5016 372.936 39.7 373.426C39.8829 373.879 40.136 374.301 40.45 374.676C40.7449 375.032 41.1089 375.324 41.52 375.536C41.9487 375.747 42.4219 375.854 42.9 375.846C43.2413 375.845 43.5798 375.784 43.9 375.666C44.2376 375.524 44.5214 375.279 44.71 374.966C44.8509 374.763 45.023 374.584 45.22 374.435C45.4426 374.273 45.7145 374.191 45.99 374.206C46.2172 374.191 46.4449 374.223 46.6596 374.299C46.8744 374.374 47.0717 374.492 47.24 374.646C47.3891 374.795 47.5059 374.973 47.5833 375.169C47.6607 375.365 47.697 375.575 47.69 375.786C47.6884 376.221 47.5636 376.648 47.33 377.016C47.0678 377.413 46.7276 377.753 46.33 378.016C45.8318 378.329 45.2889 378.565 44.72 378.716C44.038 378.895 43.3351 378.982 42.63 378.976C41.9735 378.986 41.3203 378.881 40.7 378.666C40.1467 378.475 39.6269 378.198 39.16 377.846C38.712 377.504 38.3088 377.108 37.96 376.666C37.6186 376.23 37.3173 375.765 37.06 375.276C36.8163 374.81 36.6123 374.325 36.45 373.826C36.2988 373.383 36.1719 372.932 36.07 372.476H33.85H32.78H31.63V374.656C31.6486 375.117 31.7089 375.575 31.81 376.026C31.9104 376.475 31.9607 376.935 31.96 377.396C31.9716 377.653 31.9128 377.909 31.79 378.136C31.6796 378.331 31.5297 378.501 31.35 378.636C31.1752 378.765 30.9788 378.864 30.77 378.926C30.5752 378.983 30.3732 379.014 30.17 379.016C29.8851 379.022 29.6021 378.967 29.34 378.856C29.0995 378.757 28.8817 378.611 28.7 378.426C28.5173 378.234 28.3715 378.01 28.27 377.766C28.1766 377.492 28.1358 377.204 28.15 376.916ZM31.65 369.245H32.56H33.56H34.41H34.89C36.0187 369.281 37.1434 369.094 38.2 368.696C38.9558 368.394 39.6253 367.911 40.1488 367.288C40.6722 366.665 41.0334 365.922 41.2 365.125C41.389 364.333 41.483 363.52 41.48 362.706C41.5004 362.072 41.3845 361.441 41.14 360.856C40.9287 360.376 40.6146 359.95 40.22 359.606C39.8396 359.276 39.407 359.013 38.94 358.826C38.4682 358.638 37.9792 358.498 37.48 358.406C36.9976 358.319 36.5098 358.265 36.02 358.245C35.55 358.245 35.13 358.245 34.77 358.245C34.41 358.245 33.77 358.245 33.22 358.245C32.67 358.245 32.13 358.245 31.52 358.245C31.52 358.625 31.52 358.975 31.52 359.245C31.52 359.515 31.52 359.856 31.52 360.146C31.52 360.436 31.52 360.746 31.52 361.046V362.046C31.52 362.726 31.52 363.355 31.52 363.935C31.52 364.515 31.52 365.086 31.52 365.646C31.52 366.206 31.52 366.756 31.52 367.316C31.52 367.876 31.63 368.635 31.63 369.245H31.65Z" fill="#73512E"/>
<path d="M50.77 366.995C50.7509 365.345 51.0043 363.703 51.52 362.135C51.9828 360.744 52.7132 359.457 53.67 358.345C54.5845 357.289 55.7218 356.449 57 355.885C58.3907 355.304 59.8829 355.005 61.39 355.005C62.8971 355.005 64.3893 355.304 65.78 355.885C67.0329 356.444 68.1388 357.286 69.01 358.345C69.9234 359.462 70.6034 360.751 71.01 362.135C71.4687 363.714 71.6944 365.351 71.68 366.995C71.6902 368.601 71.4437 370.198 70.95 371.725C70.4979 373.117 69.7852 374.41 68.85 375.535C67.9192 376.646 66.7518 377.533 65.4332 378.134C64.1147 378.734 62.6786 379.032 61.23 379.005C60.2147 379.014 59.2037 378.873 58.23 378.585C57.3241 378.317 56.4643 377.912 55.68 377.385C54.9004 376.869 54.1998 376.243 53.6 375.525C52.983 374.788 52.4621 373.974 52.05 373.105C51.6063 372.191 51.2707 371.228 51.05 370.235C50.8432 369.168 50.7493 368.082 50.77 366.995V366.995ZM54.18 366.995C54.18 367.744 54.2503 368.49 54.39 369.225C54.5269 369.941 54.7346 370.641 55.01 371.315C55.2734 371.964 55.6088 372.581 56.01 373.155C56.4021 373.708 56.87 374.203 57.4 374.625C57.929 375.051 58.5233 375.389 59.16 375.625C59.828 375.861 60.5317 375.98 61.24 375.975C61.9747 375.983 62.7052 375.864 63.4 375.625C64.0346 375.391 64.6259 375.053 65.15 374.625C65.6756 374.208 66.1342 373.712 66.51 373.155C66.8993 372.582 67.2182 371.965 67.46 371.315C67.7235 370.641 67.9146 369.94 68.03 369.225C68.1582 368.489 68.2217 367.743 68.22 366.995C68.2258 365.849 68.0847 364.706 67.8 363.595C67.5504 362.578 67.1166 361.616 66.52 360.755C65.9581 359.946 65.2151 359.278 64.35 358.805C63.389 358.312 62.3197 358.068 61.24 358.095C60.2043 358.077 59.1781 358.296 58.24 358.735C57.372 359.162 56.6127 359.781 56.02 360.545C55.3896 361.388 54.9216 362.341 54.64 363.355C54.3195 364.542 54.1647 365.767 54.18 366.995V366.995Z" fill="#73512E"/>
<path d="M75.46 367.255C75.4412 365.94 75.5993 364.628 75.93 363.355C76.2117 362.263 76.646 361.216 77.22 360.245C77.7451 359.369 78.3991 358.577 79.16 357.895C79.8788 357.246 80.6829 356.697 81.55 356.265C82.4025 355.835 83.3065 355.516 84.24 355.315C85.1556 355.109 86.0914 355.005 87.03 355.005C87.8686 355.006 88.7054 355.083 89.53 355.235C90.3535 355.398 91.1652 355.615 91.96 355.885L92.68 356.155C92.9144 356.229 93.1367 356.337 93.34 356.475C93.5328 356.6 93.6937 356.768 93.81 356.965C93.9383 357.201 94.0004 357.467 93.99 357.735C93.9984 358.041 93.9405 358.345 93.82 358.625C93.7188 358.844 93.5681 359.035 93.38 359.185C93.2043 359.322 93.0041 359.424 92.79 359.485C92.5884 359.543 92.3798 359.574 92.17 359.575C92.0173 359.575 91.8656 359.551 91.72 359.505C91.5495 359.461 91.3824 359.404 91.22 359.335C91.0499 359.266 90.8859 359.183 90.73 359.085C90.57 358.995 90.42 358.895 90.29 358.805C89.9671 358.666 89.6325 358.555 89.29 358.475C88.9936 358.401 88.6931 358.344 88.39 358.305L87.53 358.245H86.7C86.0642 358.246 85.4304 358.316 84.81 358.455C84.1766 358.603 83.5648 358.831 82.99 359.135C82.3967 359.443 81.8455 359.827 81.35 360.275C80.8286 360.751 80.3834 361.304 80.03 361.915C79.6362 362.591 79.3368 363.318 79.14 364.075C78.9195 364.962 78.812 365.872 78.82 366.785C78.7808 368.218 79.0219 369.645 79.53 370.985C79.9402 372.036 80.575 372.985 81.39 373.765C82.1284 374.459 83.0087 374.985 83.97 375.305C84.9093 375.614 85.8913 375.772 86.88 375.775C87.3212 375.774 87.7619 375.747 88.2 375.695C88.63 375.635 89.04 375.565 89.41 375.485C89.7492 375.41 90.0832 375.313 90.41 375.195C90.6444 375.121 90.8667 375.014 91.07 374.875C91.3139 374.654 91.5785 374.456 91.86 374.285C92.0998 374.147 92.3732 374.078 92.65 374.085C92.872 374.083 93.0935 374.106 93.31 374.155C93.5077 374.2 93.6919 374.291 93.8468 374.421C94.0017 374.552 94.1229 374.718 94.2 374.905C94.2954 375.144 94.3397 375.399 94.33 375.655C94.3315 376.075 94.1784 376.481 93.9 376.795C93.5251 377.224 93.0609 377.565 92.54 377.795V377.795C92.2415 377.957 91.9305 378.094 91.61 378.205C91.1644 378.366 90.7104 378.503 90.25 378.615C89.75 378.735 89.25 378.845 88.66 378.925C88.1143 379.013 87.5626 379.056 87.01 379.055C85.8587 379.064 84.7115 378.916 83.6 378.615C82.5994 378.343 81.643 377.929 80.76 377.385C79.917 376.871 79.1525 376.238 78.49 375.505C77.8354 374.784 77.2773 373.981 76.83 373.115C76.3834 372.233 76.0476 371.3 75.83 370.335C75.5862 369.327 75.462 368.293 75.46 367.255V367.255Z" fill="#73512E"/>
<path d="M99.25 377.175C99.25 373.789 99.25 370.415 99.25 367.055C99.25 363.695 99.25 360.319 99.25 356.925C99.2013 356.394 99.3589 355.864 99.69 355.445C100.072 355.126 100.563 354.968 101.06 355.005C101.284 355.006 101.507 355.043 101.72 355.115C101.923 355.181 102.113 355.283 102.28 355.415C102.436 355.553 102.565 355.72 102.66 355.905C102.754 356.106 102.802 356.324 102.8 356.545C102.8 357.975 102.8 359.335 102.8 360.625C102.8 361.915 102.8 363.205 102.8 364.515L110.8 356.965C110.952 356.757 111.126 356.566 111.32 356.395C111.56 356.163 111.814 355.946 112.08 355.745C112.341 355.553 112.615 355.379 112.9 355.225C113.122 355.094 113.372 355.018 113.63 355.005C113.853 355.004 114.075 355.035 114.29 355.095C114.491 355.153 114.678 355.252 114.84 355.385C114.998 355.523 115.124 355.694 115.21 355.885C115.312 356.122 115.36 356.378 115.35 356.635C115.36 356.909 115.313 357.182 115.21 357.435C115.123 357.658 114.994 357.862 114.83 358.035C114.67 358.21 114.493 358.368 114.3 358.505C114.1 358.635 113.9 358.765 113.69 358.885C112.257 360.159 110.813 361.399 109.36 362.605C107.907 363.812 106.43 365.052 104.93 366.325C105.623 366.518 106.279 366.826 106.87 367.235C107.517 367.67 108.126 368.158 108.69 368.695C109.268 369.25 109.806 369.845 110.3 370.475C110.79 371.105 111.23 371.705 111.61 372.295L112.47 373.605C112.726 373.99 113.006 374.358 113.31 374.705C113.549 374.987 113.821 375.239 114.12 375.455C114.342 375.633 114.616 375.735 114.9 375.745C115.11 375.745 115.35 375.745 115.61 375.745C115.861 375.757 116.107 375.811 116.34 375.905C116.568 376.005 116.767 376.16 116.92 376.355C117.087 376.606 117.167 376.905 117.15 377.205C117.173 377.558 117.082 377.909 116.89 378.205C116.729 378.439 116.508 378.626 116.25 378.745C115.972 378.872 115.674 378.95 115.37 378.975C115.05 378.975 114.73 378.975 114.42 378.975C113.851 378.973 113.292 378.821 112.8 378.535C112.256 378.219 111.761 377.825 111.33 377.365C110.843 376.853 110.395 376.305 109.99 375.725C109.56 375.115 109.14 374.495 108.72 373.875C108.3 373.255 107.93 372.725 107.48 372.145C107.052 371.567 106.577 371.025 106.06 370.525C105.574 370.045 105.045 369.61 104.48 369.225C103.968 368.882 103.404 368.622 102.81 368.455V373.345C102.81 374.379 102.81 375.299 102.81 376.105C102.81 376.385 102.86 376.625 102.87 376.845V377.465C102.888 377.683 102.85 377.901 102.761 378.101C102.672 378.3 102.534 378.474 102.36 378.605C101.953 378.876 101.468 379.006 100.98 378.975C100.818 378.973 100.656 378.949 100.5 378.905C100.298 378.859 100.11 378.767 99.95 378.635C99.7625 378.482 99.6092 378.292 99.5 378.075C99.3495 377.798 99.264 377.491 99.25 377.175V377.175Z" fill="#73512E"/>
<path d="M136.471 259.631C133.431 185.006 120.874 112.295 130.941 78.7723C134.234 64.0596 102.978 64.883 71.7935 64.6052C40.6273 65.5973 9.46121 65.5973 13.764 78.941C29.3336 114.964 16.813 185.462 11.0578 258.51C9.38002 277.36 8.16225 296.448 7.68416 314.95H137.463C137.824 296.894 137.463 278.173 136.471 259.631Z" fill="white"/>
<path d="M7.72023 314.99H137.463C137.869 296.894 137.463 278.203 136.516 259.631C134.261 204.143 126.738 149.727 127.171 111.67C125.827 110.678 124.6 109.775 124.203 110.083C123.301 110.797 126.512 118.367 125.547 119.012C124.582 119.657 119.9 113.059 118.89 113.664C117.88 114.269 120.216 122.196 119.188 122.712C118.159 123.228 114.181 116.105 113.126 116.571C112.07 117.037 113.667 125.202 112.594 125.609C111.52 126.016 108.146 118.536 107.055 118.893C105.963 119.25 106.956 127.544 105.864 127.822C104.773 128.099 101.895 120.401 100.786 120.678C99.6761 120.956 100.163 129.3 99.0537 129.538C97.9442 129.776 95.4996 121.869 94.381 122.077C93.2625 122.286 93.3166 130.639 92.198 130.808C91.0795 130.976 89.0138 122.94 87.8952 123.079C86.7766 123.218 86.4429 131.582 85.3153 131.691C84.1878 131.8 82.4738 123.665 81.3463 123.754C80.2187 123.843 79.5421 132.167 78.4236 132.226C77.305 132.286 75.8888 124.071 74.7703 124.111C73.6517 124.151 72.6414 132.425 71.5228 132.435C70.4043 132.445 69.2857 124.171 68.1672 124.161C67.0486 124.151 65.7406 132.375 64.6221 132.336C63.5035 132.296 62.6827 123.982 61.5731 123.913C60.4636 123.843 58.867 132.028 57.7304 131.939C56.5938 131.849 56.0976 123.496 55.0242 123.387C53.9507 123.278 51.9933 131.324 50.8837 131.224C49.7742 131.125 49.5848 122.722 48.4843 122.554C47.3838 122.385 45.1196 130.371 44.0281 130.173C42.9366 129.974 43.126 121.611 42.0165 121.383C40.907 121.155 38.273 129.002 37.1995 128.744C36.1261 128.486 36.7124 120.143 35.648 119.815C34.5835 119.488 31.4444 127.137 30.398 126.76C29.3516 126.383 30.5243 118.149 29.4959 117.752C28.4676 117.355 24.6429 124.597 23.6506 124.141C22.6583 123.684 24.7331 115.639 23.7949 115.093C23.3529 114.845 22.2795 115.768 21.0887 116.908C22.8929 154.906 15.2705 205.999 11.1661 258.441C9.41611 277.429 8.19832 296.488 7.72023 314.99Z" fill="#FBB03B"/>
<path d="M110.699 165.164C107.605 165.62 105.034 167.267 102.581 168.854C100.405 170.422 98.014 171.595 95.4996 172.327L94.832 172.486C92.0249 172.992 89.2936 173.916 86.7135 175.234C85.5408 175.888 84.3952 176.662 83.2767 177.406C81.3238 178.821 79.2254 179.977 77.0254 180.849C74.879 181.546 72.6818 182.037 70.4584 182.317C66.4082 182.932 62.5925 183.567 58.9842 186.901C58.8095 187.072 58.6884 187.299 58.6382 187.55C58.588 187.801 58.6112 188.064 58.7046 188.3C58.7872 188.552 58.9393 188.77 59.1398 188.923C59.3403 189.076 59.5792 189.156 59.8231 189.153C67.0396 188.796 72.7046 188.677 79.1182 190.482C84.0615 191.881 88.9777 193.012 94.7328 191.474C98.4313 190.482 101.381 190.036 104.655 190.611C106 190.849 107.362 191.216 108.661 191.603C110.126 192.034 111.61 192.382 113.108 192.645C115.436 192.906 117.783 192.889 120.108 192.595C123.148 192.347 130.22 192 131.835 191.603C130.932 181.008 130.075 170.769 129.318 160.848H129.092C128.695 160.848 128.948 160.283 129.246 159.797V159.747C126.585 162.932 119.404 164.787 115.101 164.846C113.63 164.862 112.16 164.968 110.699 165.164V165.164Z" fill="#8C6338"/>
<path d="M133.981 235.315C133.648 235.315 127.712 236.684 124.708 236.476C123.275 236.326 121.832 236.31 120.396 236.426C116.868 237.011 113.416 238.057 110.113 239.541C107.984 240.394 105.792 241.268 103.627 241.873C99.5137 243.014 95.265 243.797 91.1607 244.561C83.6195 245.95 75.8257 247.399 68.6092 251.089C68.3753 251.199 68.1794 251.389 68.0496 251.629C67.9199 251.87 67.8632 252.15 67.8875 252.429C67.9205 252.736 68.0399 253.025 68.2291 253.254C68.4183 253.484 68.6678 253.642 68.943 253.708C71.1378 254.182 73.373 254.392 75.6092 254.333C76.4481 254.333 77.278 254.333 78.1349 254.393C80.2065 254.559 82.2565 254.965 84.2509 255.603L86.1994 256.129C89.3152 256.8 92.4877 257.099 95.6619 257.022C98.7971 256.939 101.931 257.235 105.007 257.905C107.102 258.497 109.165 259.219 111.186 260.068C113.815 261.204 116.533 262.074 119.305 262.667C121.135 262.929 122.981 263.025 124.825 262.955C128.235 262.955 131.762 262.905 134.559 264.85C134.766 264.984 134.996 265.072 135.235 265.108C135.24 265.217 135.24 265.326 135.235 265.435C135.303 265.411 135.373 265.391 135.443 265.375L135.849 265.058C136.101 264.641 136.191 260.534 136.218 255.901C135.894 248.51 135.47 241.139 134.992 233.827C134.688 234.349 134.35 234.846 133.981 235.315Z" fill="#8C6338"/>
<path d="M130.49 285.277C127.865 285.644 125.728 287.132 123.653 288.571L122.39 289.434C120.618 290.499 118.687 291.208 116.689 291.527C115.271 291.804 113.877 292.212 112.521 292.747C110.663 293.593 108.856 294.568 107.109 295.664C106.09 296.279 105.034 296.914 103.988 297.47C103.764 297.578 103.581 297.766 103.467 298.004C103.354 298.242 103.318 298.516 103.366 298.779C103.421 299.097 103.566 299.387 103.78 299.61C103.993 299.832 104.265 299.976 104.556 300.019L106.938 300.267C109.454 300.515 112.052 300.783 114.578 301.26C116.076 301.537 117.564 301.984 118.989 302.41C120.243 302.787 121.542 303.184 122.859 303.462C124.685 303.786 126.53 303.965 128.38 303.998C131.311 304.117 134.306 304.325 136.922 305.645C137.13 305.575 137.346 305.526 137.563 305.476C137.617 299.117 137.563 292.698 137.445 286.259C136.999 285.945 136.532 285.67 136.047 285.436C134.208 285.124 132.341 285.071 130.49 285.277Z" fill="#8C6338"/>
<path d="M21.8465 296.458C24.8458 295.394 27.9691 294.813 31.1196 294.731C32.3284 294.632 33.5823 294.533 34.8361 294.374C39.0195 293.748 43.1256 292.607 47.0771 290.971C49.6389 289.979 52.309 289.285 54.8979 288.6C56.7742 288.104 58.7136 287.608 60.5989 286.973C60.8724 286.886 61.1107 286.699 61.2746 286.443C61.4386 286.187 61.5184 285.877 61.501 285.565C61.4997 285.286 61.4081 285.017 61.2428 284.806C61.0774 284.595 60.8492 284.456 60.5989 284.414C58.3041 283.874 56.0488 283.147 53.8515 282.241C51.5082 281.26 49.0942 280.497 46.6351 279.959C43.9874 279.561 41.3123 279.428 38.6428 279.562C36.3918 279.653 34.1377 279.58 31.8954 279.344C29.3133 278.89 26.7823 278.135 24.3452 277.092C20.8181 275.743 17.1828 274.374 13.4754 274.741C11.5179 274.632 10.5437 276.497 9.6326 277.4C9.05529 285.445 8.58622 293.472 8.24344 301.428C9.97539 300.664 13.2138 298.72 14.3233 298.452C16.8768 298.017 19.3932 297.35 21.8465 296.458V296.458Z" fill="#8C6338"/>
<path d="M21.0076 234.382H21.7924C24.0242 234.452 26.2573 234.313 28.4676 233.966C31.1165 233.317 33.6596 232.226 36.0088 230.732C37.8975 229.581 39.8859 228.64 41.9444 227.924C43.5885 227.494 45.2701 227.262 46.9598 227.229C47.9521 227.17 48.9804 227.11 49.9817 226.972C52.1647 226.664 54.3567 226.118 56.4765 225.583L57.4778 225.335C63.2871 223.896 68.4919 222.358 73.4082 220.652C73.6616 220.582 73.8839 220.414 74.0345 220.179C74.1851 219.945 74.2542 219.658 74.229 219.372C74.2035 219.059 74.0798 218.765 73.8791 218.54C73.6784 218.316 73.4131 218.175 73.1285 218.142C72.1363 217.993 71.126 217.755 70.1517 217.527C68.5535 217.087 66.918 216.831 65.2716 216.763C64.1981 216.763 63.1788 216.852 62.1775 216.941C60.4093 217.197 58.6167 217.171 56.8554 216.862C55.1415 216.431 53.4567 215.871 51.8129 215.185C49.7036 214.249 47.503 213.583 45.2549 213.201C42.9811 212.973 40.6941 212.953 38.4173 213.142C35.5572 213.415 32.6769 213.282 29.8477 212.745L27.6828 212.199C24.3362 211.346 19.0862 209.362 15.6674 209.332C15.6674 209.59 15.6133 209.848 15.5952 210.106C15.7395 210.532 15.938 210.969 15.505 210.999L15.2073 213.975C15.2073 214.689 15.1442 215.433 15.081 216.187C14.9457 217.844 14.7292 219.511 14.5037 221.148C14.1008 225.215 13.7039 229.306 13.313 233.42C13.6829 233.42 13.5656 233.619 13.313 233.857L13.1777 235.355C15.045 235.107 18.4457 234.531 19.1854 234.482C19.9251 234.432 20.4302 234.382 21.0076 234.382Z" fill="#8C6338"/>
<path d="M37.6686 162.942C38.8864 162.674 40.1402 162.525 41.349 162.376C43.1763 162.223 44.9876 161.891 46.7613 161.384C48.9399 160.593 51.0525 159.597 53.0758 158.408C56.0886 156.771 58.9301 155.223 62.5293 154.886C68.961 154.291 73.8592 153.011 78.4326 150.709C78.6399 150.609 78.8086 150.432 78.9092 150.209C79.0098 149.986 79.0358 149.731 78.9829 149.489C78.9369 149.207 78.8061 148.95 78.6115 148.759C78.4168 148.568 78.1696 148.455 77.9094 148.437C76.0061 148.378 74.0757 148.209 72.2084 148.04C68.1479 147.519 64.0461 147.519 59.9855 148.04L59.3811 148.15C57.6513 148.597 55.8535 148.624 54.1131 148.229C53.3324 147.984 52.5767 147.652 51.858 147.237C51.3618 146.969 50.8567 146.691 50.3245 146.463C48.1606 145.596 45.8577 145.228 43.559 145.382C42.5668 145.382 41.5835 145.481 40.6093 145.54C38.4339 145.759 36.2448 145.759 34.0694 145.54L33.2575 145.441C32.5585 145.472 31.8634 145.312 31.2339 144.976C30.6045 144.641 30.0602 144.139 29.6493 143.516C29.6417 143.421 29.6417 143.325 29.6493 143.229C29.6548 143.082 29.6337 142.935 29.5873 142.797C29.5408 142.659 29.4699 142.533 29.3787 142.425C27.6648 140.808 25.8787 141.294 24.1558 141.77C23.6686 141.899 23.1725 142.038 22.6674 142.128C22.6674 141.88 21.8104 141.83 21.0076 141.929C20.6287 152.406 19.862 163.517 18.8697 175.095C22.5862 174.5 27.8903 169.361 30.2898 167.158C32.3463 165.027 34.9011 163.568 37.6686 162.942V162.942Z" fill="#8C6338"/>
<path d="M137.373 259.582C136.363 234.66 134.315 210.364 132.349 186.871C128.479 140.917 125.132 101.223 131.825 79.0104C132.142 77.8314 132.199 76.5862 131.99 75.3784C131.781 74.1706 131.314 73.0349 130.626 72.0658C124.835 63.9008 101.877 63.7619 77.5667 63.623H71.7664L65.5332 63.8215C40.1944 64.6052 18.3194 65.2898 13.4664 73.0777C12.9128 73.9793 12.5726 75.0185 12.4765 76.1013C12.3804 77.184 12.5315 78.276 12.9161 79.2783V79.3775C24.9135 107.156 20.1326 154.965 14.621 210.334C13.0604 225.979 11.4458 242.151 10.1738 258.431C8.36973 278.742 7.24818 297.592 6.80917 314.98H8.61329C9.04628 297.658 10.1648 278.871 11.969 258.619C13.2409 242.359 14.8555 226.188 16.4161 210.552C21.9638 154.886 26.7627 106.809 14.5669 78.6037C14.2932 77.8985 14.1828 77.1297 14.2458 76.3661C14.3088 75.6025 14.5431 74.868 14.9277 74.2285C19.2576 67.2839 42.7923 66.5398 65.5512 65.8354L71.7664 65.637H77.5216C100.335 65.7759 123.923 65.9049 129.182 73.3158C129.694 74.0356 130.042 74.8787 130.199 75.7757C130.356 76.6726 130.317 77.5977 130.085 78.4747C123.31 101.005 126.657 140.887 130.536 187.059C132.511 210.532 134.55 234.809 135.56 259.701C136.633 280.237 136.913 298.591 136.561 315H138.284C138.753 294.553 138.194 275.197 137.373 259.582Z" fill="#8C6338"/>
<path d="M71.8747 0.992065C-28.3441 2.48021 0.521824 84.8241 23.9754 91.7687C36.3336 95.4296 38.3271 88.1873 38.3271 78.2763V70.8951H39.139V78.2763C39.2392 82.9643 41.0029 87.4233 44.0531 90.7C47.1033 93.9767 51.1979 95.8111 55.4617 95.8111C59.7255 95.8111 63.8202 93.9767 66.8704 90.7C69.9205 87.4233 71.6843 82.9643 71.7845 78.2763V70.8951H72.5783V78.2763C72.5783 83.0361 74.2975 87.601 77.3578 90.9667C80.418 94.3324 84.5687 96.2232 88.8965 96.2232V96.2232C91.0402 96.2245 93.1632 95.7613 95.144 94.86C97.1249 93.9586 98.9249 92.6368 100.441 90.9702C101.957 89.3035 103.16 87.3246 103.981 85.1466C104.801 82.9685 105.224 80.6339 105.224 78.2763V70.8951H106.018V78.2763C106.018 88.1972 109.689 95.7371 117.826 94.2391C145.095 89.2091 174.619 5.45649 71.8747 0.992065Z" fill="white"/>
<path d="M129.832 19.4054C117.203 7.65898 97.7637 1.13099 71.9107 0H71.8656C22.4599 0.73415 6.70092 21.7566 1.94707 38.1063C3.82335 39.783 5.96122 41.7672 6.71895 41.2215C7.78338 40.4477 5.53725 30.5168 6.89936 29.7728C8.06302 29.1378 12.1493 38.0766 13.5115 37.4714C14.7292 36.9357 13.6377 26.6576 14.9999 26.1516C16.362 25.6456 19.6274 35.0805 20.9805 34.6439C22.3336 34.2074 21.7472 23.8797 23.1094 23.4928C24.4715 23.1059 27.34 32.7788 28.7021 32.4217C30.0642 32.0645 29.8928 21.717 31.2549 21.4094C32.6171 21.1019 35.1789 30.9335 36.532 30.6656C37.8851 30.3978 38.0655 20.0304 39.4276 19.7526C40.7897 19.4748 43.09 29.4553 44.4431 29.2469C45.7961 29.0386 46.2472 18.6812 47.6183 18.5026C48.9894 18.324 51.0371 28.3541 52.3992 28.1953C53.7613 28.0366 54.4649 17.7188 55.827 17.5898C57.1891 17.4609 59.0203 27.5604 60.3824 27.5108C61.7445 27.4612 62.6917 17.1236 64.0538 17.0442C65.4159 16.9648 67.0216 27.1338 68.3747 27.0941C69.7278 27.0544 70.9365 16.7863 72.2896 16.7664C73.6427 16.7466 74.9958 26.975 76.3669 26.975C77.738 26.975 79.1813 16.7862 80.5344 16.8259C81.8875 16.8656 83.0061 27.1735 84.3501 27.1735C85.6942 27.1735 87.4352 17.1136 88.7792 17.2525C90.1233 17.3914 90.9712 27.6596 92.3153 27.7985C93.6594 27.9374 95.689 17.8775 97.0241 18.0462C98.3591 18.2148 98.8913 28.5723 100.226 28.7707C101.561 28.9691 103.934 19.0581 105.269 19.2962C106.604 19.5343 106.739 29.9216 108.065 30.2093C109.391 30.497 112.17 20.7546 113.478 21.0919C114.786 21.4292 114.488 31.7867 115.814 32.1339C117.14 32.4812 120.396 23.0463 121.677 23.5027C122.958 23.9591 122.065 34.267 123.337 34.7829C124.609 35.2987 128.515 26.231 129.751 26.8461C130.987 27.4612 129.318 37.5905 130.527 38.2849C131.735 38.9794 136.471 30.5664 137.635 31.3403C138.798 32.1141 136.029 41.8763 137.139 42.799C137.869 43.4041 140.413 40.7652 142.452 38.9893C139.876 31.3591 135.524 24.6062 129.832 19.4054Z" fill="#FBB03B"/>
<path d="M129.832 19.4054C117.203 7.65898 97.7637 1.13099 71.9107 0H71.8656C8.12617 0.992095 0.386512 35.6658 0.0166683 50.5472C-0.533587 72.8991 12.6455 91.9176 23.9122 92.7608C34.34 93.5446 37.6686 86.471 38.706 82.3339C40.5101 90.1021 46.9147 95.2312 55.4392 95.2312C63.9636 95.2312 70.3772 90.2707 72.1633 82.7209C73.9674 90.2707 80.2819 95.2312 88.8785 95.2312C97.2315 95.2312 103.51 90.4989 105.467 83.2467C106.433 89.2885 109.563 94.9137 117.78 95.2312H118.304C131.32 95.2312 144.121 76.3814 144.815 56.0236C145.302 41.8862 139.98 28.8799 129.832 19.4054ZM143.011 55.9442C142.343 75.5877 130.075 93.6438 117.844 93.2271C110.483 92.9394 106.902 88.0385 106.902 78.2564V70.8752C106.902 70.6221 106.814 70.3784 106.657 70.194C106.499 70.0095 106.283 69.8983 106.054 69.8831H106C105.778 69.8814 105.563 69.9694 105.397 70.1304C105.231 70.2915 105.124 70.5142 105.097 70.7562L104.295 78.1374V78.2564C104.295 87.0662 97.9802 93.2271 88.8694 93.2271C79.7587 93.2271 73.4533 87.0662 73.4533 78.2564V70.8752C73.4604 70.745 73.4441 70.6144 73.4053 70.4911C73.3665 70.3677 73.3061 70.2539 73.2273 70.1563C73.1486 70.0586 73.0531 69.979 72.9464 69.9219C72.8397 69.8648 72.7238 69.8314 72.6053 69.8236C72.4869 69.8158 72.3682 69.8337 72.256 69.8764C72.1438 69.919 72.0404 69.9855 71.9516 70.0721C71.8628 70.1587 71.7904 70.2637 71.7385 70.3811C71.6866 70.4984 71.6562 70.6259 71.6491 70.7562L70.8463 78.1374V78.2564C70.8463 87.0662 64.5319 93.2271 55.4211 93.2271C46.5358 93.2271 40.1944 87.0563 39.9959 78.1374L39.2021 70.7661C39.1749 70.5153 39.0618 70.2854 38.8858 70.1232C38.7098 69.961 38.4842 69.8787 38.2549 69.8931C38.0252 69.9083 37.8094 70.0195 37.6518 70.2039C37.4941 70.3883 37.4066 70.632 37.407 70.8852V78.2664C37.3982 78.3288 37.3982 78.3924 37.407 78.4549C37.3109 81.7692 36.1398 84.9363 34.1055 87.3837C31.7781 89.9632 28.3864 91.104 23.9934 90.7767C11.5269 89.8441 1.36073 67.899 1.7847 50.5869C2.14552 36.2809 9.66869 2.90684 71.8296 1.97427C97.2496 3.08542 116.364 9.45466 128.659 20.9134C141.117 32.5407 143.336 46.3904 143.011 55.9442Z" fill="#8C6338"/>
</svg>
