<svg width="160" height="380" viewBox="0 0 160 380" fill="none" xmlns="http://www.w3.org/2000/svg">
<path d="M0.00319423 373.23C0.00995932 372.581 0.182041 371.944 0.503194 371.38C0.678769 371.156 0.908748 370.98 1.17129 370.87C1.43382 370.76 1.7202 370.718 2.00319 370.75C2.42256 370.736 2.83338 370.871 3.16317 371.13C3.31123 371.251 3.43035 371.404 3.51168 371.577C3.59301 371.75 3.63452 371.939 3.6332 372.13C3.63475 372.392 3.6113 372.653 3.56319 372.91C3.5111 373.177 3.4943 373.449 3.5132 373.72C3.55839 374.071 3.71634 374.397 3.96322 374.65C4.25021 374.949 4.58904 375.193 4.96322 375.37C5.39261 375.591 5.85015 375.753 6.3232 375.85C6.83487 375.967 7.35837 376.024 7.8832 376.02C8.42303 376.023 8.96198 375.976 9.49318 375.88C10.0051 375.794 10.4968 375.615 10.9432 375.35C11.3769 375.091 11.738 374.726 11.9932 374.29C12.2862 373.755 12.428 373.15 12.4032 372.54C12.402 372.074 12.2814 371.616 12.0532 371.21C11.819 370.791 11.5223 370.41 11.1732 370.08C10.8079 369.729 10.4094 369.414 9.98317 369.14C9.55317 368.86 9.13317 368.62 8.73317 368.41C8.16317 368.12 7.58318 367.84 6.99318 367.56C6.40318 367.28 5.82319 367 5.25319 366.69C4.69773 366.393 4.16318 366.059 3.65322 365.69C3.1539 365.329 2.70931 364.898 2.33321 364.41C1.93972 363.898 1.63543 363.323 1.43319 362.71C1.20061 361.99 1.08908 361.236 1.10317 360.48C1.07893 359.62 1.28989 358.769 1.71322 358.02C2.10988 357.342 2.6531 356.761 3.30318 356.32C3.99521 355.856 4.76365 355.517 5.5732 355.32C6.43029 355.107 7.31011 355 8.1932 355C8.97136 354.998 9.74802 355.069 10.5132 355.21C11.21 355.336 11.8842 355.565 12.5132 355.89C13.0884 356.195 13.5874 356.626 13.9732 357.15C14.381 357.713 14.6266 358.377 14.6832 359.07C14.7063 359.322 14.6686 359.576 14.5732 359.81C14.4939 360.017 14.3672 360.202 14.2032 360.35C14.0412 360.492 13.8549 360.604 13.6532 360.68C13.4542 360.751 13.2445 360.788 13.0332 360.79C12.7557 360.797 12.4798 360.746 12.2232 360.64C12.0205 360.554 11.837 360.428 11.6832 360.27C11.5465 360.123 11.4411 359.949 11.3732 359.76C11.3074 359.583 11.2637 359.398 11.2432 359.21C11.0913 358.97 10.8902 358.766 10.6532 358.61C10.4023 358.455 10.1337 358.331 9.85317 358.24C9.55388 358.145 9.24559 358.081 8.93319 358.05C8.62473 358.011 8.31414 357.991 8.00319 357.99C7.58273 357.992 7.16369 358.039 6.75319 358.13C6.35618 358.213 5.97479 358.358 5.62319 358.56C5.29752 358.755 5.01779 359.017 4.80318 359.33C4.58524 359.665 4.47692 360.06 4.49318 360.46C4.48228 360.955 4.61046 361.444 4.86318 361.87C5.11485 362.282 5.4324 362.651 5.80318 362.96C6.19714 363.291 6.62252 363.582 7.0732 363.83C7.5332 364.09 7.98318 364.33 8.42318 364.55C8.95318 364.82 9.5032 365.1 10.0732 365.41C10.6432 365.72 11.1932 366.04 11.7432 366.41C12.2811 366.759 12.7955 367.143 13.2832 367.56C13.7666 367.975 14.1996 368.444 14.5732 368.96C14.9422 369.481 15.2383 370.049 15.4532 370.65C15.6695 371.295 15.7776 371.97 15.7732 372.65C15.7839 373.367 15.6723 374.081 15.4432 374.76C15.2386 375.351 14.9341 375.902 14.5432 376.39C14.169 376.858 13.7196 377.26 13.2132 377.58C12.6966 377.913 12.1428 378.185 11.5632 378.39C10.9691 378.601 10.3563 378.755 9.73317 378.85C9.10728 378.941 8.47568 378.988 7.84316 378.99C7.27405 378.989 6.70587 378.945 6.14321 378.86C5.53589 378.765 4.93722 378.622 4.35317 378.43C3.76751 378.242 3.20417 377.991 2.67318 377.68C2.14898 377.385 1.67343 377.01 1.2632 376.57C0.859209 376.135 0.53734 375.63 0.313192 375.08C0.0852594 374.491 -0.0202173 373.861 0.00319423 373.23Z" fill="#73512E"/>
<path d="M19.5832 367.29C19.5676 365.974 19.729 364.663 20.0632 363.39C20.3442 362.301 20.7785 361.257 21.3531 360.29C21.8747 359.414 22.5253 358.622 23.2831 357.94C24.0054 357.295 24.8089 356.747 25.6732 356.31C26.5263 355.881 27.4301 355.562 28.3632 355.36C29.2787 355.153 30.2146 355.049 31.1532 355.05C31.9918 355.051 32.8285 355.128 33.6532 355.28C34.4734 355.443 35.2819 355.66 36.0732 355.93L36.8032 356.2C37.0359 356.278 37.2577 356.386 37.4632 356.52C37.6537 356.647 37.8141 356.814 37.9332 357.01C38.0606 357.243 38.1228 357.505 38.1132 357.77C38.1226 358.076 38.0646 358.38 37.9432 358.66C37.8379 358.882 37.6841 359.076 37.4932 359.23C37.3188 359.369 37.1181 359.471 36.9032 359.53C36.7003 359.581 36.4922 359.607 36.2831 359.61C36.1313 359.608 35.9802 359.588 35.8332 359.55C35.6732 359.55 35.5131 359.45 35.3431 359.38C35.1817 359.306 35.0248 359.223 34.8732 359.13L34.4332 358.85C34.1103 358.711 33.7756 358.6 33.4332 358.52C33.1367 358.446 32.8362 358.389 32.5331 358.35L31.6732 358.29H30.8431C30.207 358.294 29.5732 358.368 28.9532 358.51C28.3206 358.656 27.7091 358.881 27.1332 359.18C26.5417 359.495 25.991 359.881 25.4932 360.33C24.9723 360.806 24.5272 361.359 24.1732 361.97C23.781 362.646 23.4849 363.373 23.2931 364.13C23.0671 365.015 22.9595 365.927 22.9731 366.84C22.9308 368.27 23.1721 369.694 23.6832 371.03C24.0902 372.08 24.7215 373.029 25.5331 373.81C26.2701 374.504 27.1511 375.026 28.1132 375.34C29.0513 375.653 30.0341 375.812 31.0232 375.81C31.4645 375.814 31.9055 375.787 32.3431 375.73C32.7503 375.685 33.1544 375.615 33.5532 375.52C33.892 375.448 34.226 375.354 34.5532 375.24C34.7858 375.162 35.0076 375.054 35.2132 374.92C35.4552 374.696 35.72 374.499 36.0032 374.33C36.2416 374.187 36.5153 374.115 36.7931 374.12C37.0123 374.12 37.2306 374.147 37.4432 374.2C37.6372 374.246 37.8184 374.335 37.9731 374.46C38.1278 374.595 38.2508 374.762 38.3332 374.95C38.4312 375.184 38.4789 375.436 38.4731 375.69C38.4699 376.112 38.3176 376.519 38.0431 376.84C37.6665 377.271 37.1985 377.613 36.6732 377.84V377.84C36.3776 377.998 36.07 378.131 35.7532 378.24C35.3086 378.404 34.8544 378.541 34.3932 378.65C33.8932 378.78 33.3932 378.88 32.8032 378.97C32.2569 379.052 31.7056 379.096 31.1532 379.1C30.0043 379.111 28.8597 378.959 27.7532 378.65C26.7514 378.377 25.7923 377.966 24.9032 377.43C24.0637 376.915 23.3026 376.282 22.6432 375.55C21.9876 374.83 21.4294 374.026 20.9832 373.16C20.5366 372.278 20.2007 371.344 19.9832 370.38C19.7285 369.369 19.5943 368.332 19.5832 367.29Z" fill="#73512E"/>
<path d="M44.4132 377.41C44.4096 376.905 44.4464 376.4 44.5232 375.9C44.5971 375.377 44.6339 374.849 44.6332 374.32C44.6332 371.78 44.6099 369.223 44.5632 366.65C44.5165 364.077 44.4965 361.433 44.5032 358.72C44.5024 358.434 44.4722 358.149 44.4132 357.87C44.3511 357.567 44.321 357.259 44.3232 356.95C44.32 356.703 44.3537 356.457 44.4232 356.22C44.4935 355.991 44.6168 355.782 44.7832 355.61C44.9829 355.423 45.2221 355.283 45.4832 355.2C45.8496 355.091 46.231 355.04 46.6132 355.05C46.818 355.042 47.0217 355.085 47.2064 355.174C47.3911 355.263 47.5513 355.395 47.6732 355.56C47.9508 355.957 48.088 356.436 48.0632 356.92C48.0619 357.088 48.0452 357.255 48.0132 357.42L47.9232 357.94C47.9232 358.8 47.9232 359.72 47.9232 360.71C47.9232 361.7 47.9232 362.83 47.9232 364.1C47.9232 365.37 47.9232 366.4 47.9232 367.59C47.9232 368.78 47.9232 369.92 47.9232 371.02C47.9232 372.12 47.9732 373.14 48.0132 374.09C48.0532 375.04 48.0832 375.86 48.1332 376.55C48.1332 376.703 48.1532 376.843 48.1932 376.97C48.1932 377.11 48.1932 377.25 48.1932 377.39C48.193 377.612 48.1662 377.834 48.1132 378.05C48.0607 378.245 47.9651 378.427 47.8332 378.58C47.6872 378.742 47.5008 378.863 47.2932 378.93C47.0185 379.017 46.7312 379.057 46.4432 379.05C46.1066 379.056 45.7706 379.019 45.4432 378.94C45.2123 378.886 44.9967 378.78 44.8132 378.63C44.6605 378.488 44.5469 378.309 44.4832 378.11C44.4263 377.881 44.4027 377.646 44.4132 377.41Z" fill="#73512E"/>
<path d="M54.5132 373.23C54.5149 372.58 54.6874 371.942 55.0132 371.38C55.1887 371.156 55.4187 370.98 55.6813 370.87C55.9438 370.76 56.2302 370.718 56.5132 370.75C56.9295 370.736 57.3372 370.871 57.6631 371.13C57.8141 371.249 57.9359 371.401 58.0191 371.574C58.1023 371.748 58.1448 371.938 58.1432 372.13C58.1447 372.392 58.1213 372.653 58.0732 372.91C58.0211 373.177 58.0043 373.449 58.0232 373.72C58.0684 374.071 58.2263 374.397 58.4731 374.65C58.7601 374.949 59.099 375.193 59.4731 375.37C59.9025 375.591 60.3601 375.753 60.8332 375.85C61.3448 375.967 61.8683 376.024 62.3932 376.02C62.933 376.023 63.472 375.976 64.0032 375.88C64.5151 375.794 65.0067 375.615 65.4532 375.35C65.8686 375.084 66.212 374.72 66.4532 374.29C66.7462 373.755 66.8879 373.15 66.8631 372.54C66.8619 372.074 66.7414 371.616 66.5132 371.21C66.279 370.791 65.9823 370.41 65.6332 370.08C65.2679 369.729 64.8694 369.414 64.4432 369.14C64.0132 368.86 63.5932 368.62 63.1932 368.41C62.6232 368.12 62.0432 367.84 61.4532 367.56C60.8632 367.28 60.2732 367 59.7132 366.69C59.1563 366.396 58.6216 366.062 58.1131 365.69C57.6138 365.329 57.1692 364.898 56.7931 364.41C56.3997 363.898 56.0954 363.323 55.8932 362.71C55.6606 361.99 55.5491 361.236 55.5632 360.48C55.5389 359.62 55.7498 358.769 56.1731 358.02C56.5698 357.342 57.1131 356.761 57.7632 356.32C58.4552 355.856 59.2236 355.517 60.0331 355.32C60.8902 355.107 61.7701 355 62.6532 355C63.4313 354.998 64.208 355.069 64.9731 355.21C65.67 355.336 66.3441 355.565 66.9731 355.89C67.5464 356.198 68.0449 356.628 68.4332 357.15C68.841 357.713 69.0866 358.377 69.1432 359.07C69.1663 359.322 69.1285 359.576 69.0331 359.81C68.9539 360.017 68.8271 360.202 68.6631 360.35C68.4996 360.49 68.3137 360.602 68.1131 360.68C67.9141 360.751 67.7045 360.788 67.4932 360.79C67.2157 360.797 66.9398 360.746 66.6832 360.64C66.4805 360.554 66.297 360.428 66.1432 360.27C66.0065 360.123 65.9011 359.949 65.8332 359.76C65.7644 359.583 65.7173 359.398 65.6932 359.21C65.5442 358.971 65.3465 358.767 65.1131 358.61C64.8613 358.457 64.5929 358.333 64.3132 358.24C64.0139 358.145 63.7056 358.081 63.3932 358.05C63.0847 358.011 62.7741 357.991 62.4632 357.99C62.0427 357.992 61.6237 358.039 61.2132 358.13C60.8162 358.213 60.4348 358.358 60.0832 358.56C59.7553 358.752 59.475 359.015 59.2632 359.33C59.0452 359.665 58.9369 360.06 58.9532 360.46C58.9423 360.955 59.0704 361.444 59.3232 361.87C59.5748 362.282 59.8924 362.651 60.2632 362.96C60.6571 363.291 61.0824 363.582 61.5331 363.83C61.9931 364.09 62.4432 364.33 62.8832 364.55C63.4132 364.82 63.9631 365.1 64.5331 365.41C65.1031 365.72 65.6532 366.04 66.2032 366.41C66.7411 366.759 67.2555 367.143 67.7432 367.56C68.2266 367.975 68.6595 368.444 69.0331 368.96C69.4021 369.481 69.6982 370.049 69.9131 370.65C70.1294 371.295 70.2376 371.97 70.2331 372.65C70.2438 373.367 70.1323 374.081 69.9032 374.76C69.6985 375.351 69.3941 375.902 69.0032 376.39C68.629 376.858 68.1795 377.26 67.6731 377.58C67.1565 377.913 66.6028 378.185 66.0232 378.39C65.4287 378.6 64.8161 378.753 64.1932 378.85C63.5673 378.941 62.9357 378.988 62.3031 378.99C61.734 378.989 61.1658 378.945 60.6031 378.86C59.9958 378.765 59.3972 378.622 58.8132 378.43C58.2275 378.242 57.6642 377.991 57.1332 377.68C56.6072 377.387 56.1312 377.013 55.7231 376.57C55.3597 376.142 55.0722 375.655 54.8732 375.13C54.6213 374.529 54.4987 373.882 54.5132 373.23Z" fill="#73512E"/>
<path d="M74.7732 373.23C74.775 372.58 74.9474 371.942 75.2732 371.38C75.4488 371.156 75.6787 370.98 75.9413 370.87C76.2038 370.76 76.4902 370.718 76.7732 370.75C77.1895 370.736 77.5973 370.871 77.9232 371.13C78.0742 371.249 78.1959 371.401 78.2791 371.574C78.3623 371.748 78.4048 371.938 78.4032 372.13C78.4047 372.392 78.3813 372.653 78.3332 372.91C78.2811 373.177 78.2642 373.449 78.2831 373.72C78.3283 374.071 78.4863 374.397 78.7331 374.65C79.0201 374.949 79.359 375.193 79.7331 375.37C80.1625 375.591 80.6201 375.753 81.0931 375.85C81.6048 375.967 82.1284 376.024 82.6532 376.02C83.193 376.023 83.732 375.976 84.2632 375.88C84.7751 375.794 85.2668 375.615 85.7132 375.35C86.1286 375.084 86.472 374.72 86.7132 374.29C87.0062 373.755 87.148 373.15 87.1232 372.54C87.1219 372.074 87.0014 371.616 86.7732 371.21C86.539 370.791 86.2423 370.41 85.8932 370.08C85.5279 369.729 85.1294 369.414 84.7032 369.14C84.2632 368.86 83.8532 368.62 83.4532 368.41C82.8832 368.12 82.3032 367.84 81.7132 367.56C81.1232 367.28 80.5331 367 79.9731 366.69C79.4163 366.396 78.8816 366.062 78.3732 365.69C77.8716 365.332 77.4266 364.9 77.0532 364.41C76.6597 363.898 76.3554 363.323 76.1532 362.71C75.9206 361.99 75.8091 361.236 75.8232 360.48C75.8004 359.621 76.0075 358.772 76.4232 358.02C76.8264 357.344 77.3725 356.764 78.0232 356.32C78.7127 355.858 79.4774 355.519 80.2831 355.32C81.1437 355.108 82.0268 355 82.9131 355C83.6913 354.998 84.468 355.069 85.2331 355.21C85.9306 355.333 86.6051 355.563 87.2331 355.89C87.8112 356.195 88.3136 356.625 88.7032 357.15C89.1079 357.714 89.3501 358.378 89.4032 359.07C89.4291 359.321 89.3948 359.575 89.3032 359.81C89.2239 360.017 89.0971 360.202 88.9332 360.35C88.7696 360.49 88.5837 360.602 88.3832 360.68C88.1842 360.751 87.9746 360.788 87.7632 360.79C87.4857 360.797 87.2098 360.746 86.9532 360.64C86.7505 360.554 86.567 360.428 86.4131 360.27C86.2765 360.123 86.171 359.949 86.1031 359.76C86.0343 359.583 85.9874 359.398 85.9632 359.21C85.8142 358.971 85.6165 358.767 85.3832 358.61C85.1313 358.457 84.8629 358.333 84.5832 358.24C84.2839 358.145 83.9755 358.081 83.6631 358.05C83.3547 358.011 83.0441 357.991 82.7331 357.99C82.3127 357.992 81.8936 358.039 81.4831 358.13C81.0861 358.213 80.7047 358.358 80.3531 358.56C80.0253 358.752 79.745 359.015 79.5331 359.33C79.3117 359.664 79.1999 360.059 79.2132 360.46C79.2058 360.956 79.3374 361.445 79.5931 361.87C79.8448 362.282 80.1624 362.651 80.5331 362.96C80.9271 363.291 81.3525 363.582 81.8032 363.83C82.2632 364.09 82.7132 364.33 83.1532 364.55C83.6832 364.82 84.2332 365.1 84.8032 365.41C85.3732 365.72 85.9232 366.04 86.4632 366.41C87.0043 366.759 87.5221 367.143 88.0132 367.56C88.4966 367.975 88.9295 368.444 89.3032 368.96C89.6721 369.481 89.9682 370.049 90.1832 370.65C90.3994 371.295 90.5076 371.97 90.5032 372.65C90.5139 373.367 90.4022 374.081 90.1732 374.76C89.9685 375.351 89.6641 375.902 89.2732 376.39C88.8991 376.858 88.4495 377.26 87.9432 377.58C87.4266 377.913 86.8728 378.185 86.2931 378.39C85.6987 378.6 85.0861 378.753 84.4632 378.85C83.8373 378.941 83.2057 378.988 82.5732 378.99C82.0041 378.989 81.4358 378.945 80.8732 378.86C80.2656 378.766 79.6669 378.623 79.0832 378.43C78.4975 378.242 77.9342 377.991 77.4032 377.68C76.8756 377.39 76.3992 377.015 75.9932 376.57C75.5892 376.135 75.2673 375.63 75.0431 375.08C74.8288 374.488 74.737 373.859 74.7732 373.23Z" fill="#73512E"/>
<path d="M94.8732 367.04C94.853 365.387 95.1064 363.741 95.6232 362.17C96.0888 360.785 96.8152 359.502 97.7632 358.39C98.6815 357.334 99.822 356.494 101.103 355.93C102.466 355.328 103.943 355.028 105.433 355.05C106.959 355.018 108.474 355.319 109.873 355.93C111.125 356.491 112.23 357.333 113.103 358.39C114.011 359.507 114.69 360.791 115.103 362.17C115.567 363.751 115.793 365.392 115.773 367.04C115.788 368.643 115.541 370.237 115.043 371.76C114.593 373.147 113.884 374.437 112.953 375.56C112.023 376.672 110.856 377.562 109.538 378.164C108.219 378.766 106.783 379.066 105.333 379.04C104.318 379.049 103.307 378.908 102.333 378.62C101.427 378.352 100.567 377.947 99.7832 377.42C99.011 376.898 98.3144 376.272 97.7132 375.56C97.0977 374.82 96.5801 374.003 96.1732 373.13C95.7251 372.217 95.3893 371.254 95.1732 370.26C94.9608 369.2 94.8603 368.121 94.8732 367.04V367.04ZM98.2832 367.04C98.2832 367.785 98.3535 368.528 98.4932 369.26C98.6254 369.977 98.8332 370.677 99.1132 371.35C99.3687 372.003 99.7047 372.621 100.113 373.19C100.5 373.748 100.968 374.243 101.503 374.66C102.027 375.088 102.618 375.426 103.253 375.66C103.92 375.901 104.624 376.019 105.333 376.01C106.068 376.022 106.8 375.904 107.493 375.66C108.128 375.426 108.719 375.088 109.243 374.66C109.768 374.245 110.224 373.749 110.593 373.19C111.003 372.622 111.339 372.003 111.593 371.35C111.857 370.676 112.048 369.975 112.163 369.26C112.291 368.527 112.355 367.784 112.353 367.04C112.36 365.89 112.218 364.744 111.933 363.63C111.679 362.618 111.246 361.659 110.653 360.8C110.071 359.945 109.281 359.252 108.357 358.785C107.434 358.318 106.407 358.093 105.373 358.13C104.336 358.112 103.31 358.335 102.373 358.78C101.502 359.202 100.742 359.822 100.153 360.59C99.5151 361.425 99.0463 362.376 98.7732 363.39C98.4409 364.578 98.2792 365.807 98.2932 367.04H98.2832Z" fill="#73512E"/>
<path d="M120.993 376.94C120.993 376.72 120.993 376.51 120.993 376.3C120.993 376.09 120.993 375.89 121.053 375.71V360.71C121.053 359.91 121.053 359.09 121.053 358.25C120.926 357.831 120.855 357.397 120.843 356.96C120.843 356.746 120.876 356.533 120.943 356.33C121.003 356.124 121.105 355.933 121.243 355.77C121.377 355.603 121.548 355.469 121.743 355.38C121.958 355.277 122.195 355.225 122.433 355.23C122.858 355.229 123.282 355.252 123.703 355.3C124.185 355.355 124.669 355.381 125.153 355.38C125.603 355.38 126.053 355.38 126.503 355.31C126.953 355.24 127.423 355.24 127.933 355.23C129.312 355.218 130.688 355.365 132.033 355.67C133.155 355.927 134.215 356.403 135.153 357.07C136.013 357.687 136.702 358.513 137.153 359.47C137.647 360.562 137.886 361.752 137.853 362.95C137.874 364.105 137.695 365.256 137.323 366.35C137.002 367.28 136.544 368.156 135.963 368.95C135.442 369.653 134.819 370.273 134.113 370.79C133.496 371.248 132.824 371.627 132.113 371.92C132.197 372.44 132.338 372.95 132.533 373.44C132.718 373.892 132.971 374.314 133.283 374.69C133.578 375.044 133.942 375.333 134.353 375.54C134.781 375.755 135.254 375.865 135.733 375.86C136.074 375.859 136.413 375.798 136.733 375.68C137.071 375.539 137.354 375.294 137.543 374.98C137.684 374.777 137.856 374.599 138.053 374.45C138.274 374.284 138.547 374.199 138.823 374.21C139.051 374.197 139.279 374.23 139.494 374.307C139.709 374.384 139.906 374.504 140.073 374.66C140.222 374.809 140.339 374.987 140.416 375.183C140.494 375.379 140.53 375.589 140.523 375.8C140.522 376.236 140.397 376.662 140.163 377.03C139.904 377.43 139.563 377.771 139.163 378.03C138.669 378.351 138.125 378.588 137.553 378.73C136.873 378.918 136.169 379.009 135.463 379C134.81 379.006 134.161 378.901 133.543 378.69C132.99 378.5 132.47 378.223 132.003 377.87C131.55 377.528 131.143 377.128 130.793 376.68C130.447 376.248 130.146 375.782 129.893 375.29C129.652 374.827 129.448 374.345 129.283 373.85C129.135 373.407 129.011 372.956 128.913 372.5H126.693H125.623H124.463V374.68C124.482 375.141 124.542 375.6 124.643 376.05C124.744 376.5 124.794 376.959 124.793 377.42C124.8 377.674 124.741 377.925 124.623 378.15C124.512 378.345 124.362 378.515 124.183 378.65C124.008 378.787 123.807 378.889 123.593 378.95C123.402 379.007 123.203 379.037 123.003 379.04C122.719 379.04 122.437 378.986 122.173 378.88C121.935 378.778 121.718 378.632 121.533 378.45C121.353 378.257 121.207 378.033 121.103 377.79C121.014 377.516 120.977 377.228 120.993 376.94V376.94ZM124.493 369.28H125.403H126.403H127.253H127.733C128.865 369.32 129.994 369.133 131.053 368.73C131.83 368.41 132.516 367.905 133.053 367.26C133.533 366.644 133.874 365.931 134.053 365.17C134.234 364.373 134.325 363.558 134.323 362.74C134.343 362.106 134.227 361.475 133.983 360.89C133.769 360.415 133.46 359.989 133.073 359.64C132.688 359.315 132.252 359.055 131.783 358.87C131.311 358.683 130.822 358.542 130.323 358.45C129.844 358.36 129.36 358.303 128.873 358.28H127.623H126.073H124.373C124.373 358.66 124.373 359.01 124.373 359.28C124.373 359.55 124.373 359.89 124.373 360.18C124.373 360.47 124.373 360.77 124.373 361.08V362.08C124.373 362.76 124.373 363.39 124.373 363.98C124.373 364.57 124.373 365.13 124.373 365.68C124.373 366.23 124.373 366.79 124.373 367.35C124.373 367.91 124.463 368.67 124.493 369.28Z" fill="#73512E"/>
<path d="M143.743 373.23C143.748 372.579 143.924 371.941 144.253 371.38C144.429 371.156 144.659 370.98 144.921 370.87C145.184 370.76 145.47 370.719 145.753 370.75C146.159 370.743 146.555 370.877 146.873 371.13C147.024 371.249 147.146 371.401 147.229 371.574C147.312 371.748 147.355 371.938 147.353 372.13C147.351 372.392 147.325 372.653 147.273 372.91C147.238 373.179 147.238 373.451 147.273 373.72C147.318 374.071 147.476 374.397 147.723 374.65C148.01 374.949 148.349 375.193 148.723 375.37C149.153 375.591 149.61 375.753 150.083 375.85C150.592 375.966 151.112 376.023 151.633 376.02C152.173 376.024 152.712 375.977 153.243 375.88C153.756 375.798 154.248 375.618 154.693 375.35C155.131 375.092 155.495 374.727 155.753 374.29C156.043 373.754 156.181 373.149 156.153 372.54C156.156 372.075 156.039 371.617 155.813 371.21C155.553 370.807 155.237 370.443 154.873 370.13C154.508 369.779 154.109 369.464 153.683 369.19C153.243 368.91 152.833 368.67 152.433 368.46C151.863 368.17 151.283 367.89 150.683 367.61C150.083 367.33 149.513 367.05 148.953 366.74C148.395 366.448 147.86 366.114 147.353 365.74C146.849 365.382 146.4 364.951 146.023 364.46C145.629 363.95 145.328 363.375 145.133 362.76C144.901 362.04 144.789 361.287 144.803 360.53C144.78 359.671 144.988 358.822 145.403 358.07C145.806 357.394 146.352 356.814 147.003 356.37C147.691 355.905 148.456 355.567 149.263 355.37C150.124 355.158 151.007 355.05 151.893 355.05C152.671 355.048 153.448 355.119 154.213 355.26C154.91 355.384 155.585 355.614 156.213 355.94C156.791 356.245 157.294 356.675 157.683 357.2C158.088 357.764 158.33 358.428 158.383 359.12C158.409 359.371 158.375 359.625 158.283 359.86C158.2 360.067 158.07 360.252 157.903 360.4C157.743 360.54 157.561 360.652 157.363 360.73C157.164 360.8 156.954 360.838 156.743 360.84C156.466 360.847 156.19 360.796 155.933 360.69C155.731 360.604 155.547 360.478 155.393 360.32C155.253 360.175 155.147 360.001 155.083 359.81C155.014 359.633 154.967 359.448 154.943 359.26C154.794 359.022 154.597 358.817 154.363 358.66C154.111 358.507 153.843 358.383 153.563 358.29C153.264 358.196 152.955 358.133 152.643 358.1C152.335 358.061 152.024 358.041 151.713 358.04C151.293 358.042 150.874 358.089 150.463 358.18C150.066 358.263 149.685 358.408 149.333 358.61C149.005 358.802 148.725 359.065 148.513 359.38C148.292 359.714 148.18 360.109 148.193 360.51C148.186 361.006 148.317 361.495 148.573 361.92C148.825 362.332 149.142 362.701 149.513 363.01C149.905 363.338 150.327 363.63 150.773 363.88C151.243 364.14 151.693 364.38 152.133 364.6C152.573 364.82 153.213 365.15 153.773 365.46C154.347 365.764 154.904 366.098 155.443 366.46C155.984 366.809 156.502 367.193 156.993 367.61C157.477 368.025 157.91 368.494 158.283 369.01C158.653 369.529 158.946 370.098 159.153 370.7C159.374 371.343 159.482 372.02 159.473 372.7C159.482 373.416 159.374 374.129 159.153 374.81C158.949 375.401 158.644 375.952 158.253 376.44C157.877 376.906 157.428 377.307 156.923 377.63C156.407 377.963 155.853 378.235 155.273 378.44C154.679 378.65 154.066 378.804 153.443 378.9C152.814 378.991 152.179 379.038 151.543 379.04C150.977 379.039 150.412 378.995 149.853 378.91C149.246 378.817 148.647 378.673 148.063 378.48C147.475 378.29 146.909 378.039 146.373 377.73C145.85 377.437 145.378 377.062 144.973 376.62C144.566 376.187 144.244 375.682 144.023 375.13C143.799 374.523 143.703 373.876 143.743 373.23V373.23Z" fill="#73512E"/>
<path d="M107.317 25.8545C106.617 25.7905 105.931 25.6163 105.285 25.3382C104.965 25.2235 104.654 25.117 104.367 25.035C104.08 24.9531 103.941 24.9203 103.712 24.863C103.337 24.7802 102.97 24.6679 102.613 24.527C101.737 24.1254 101.171 23.3059 100.098 21.6998C102.228 19.9625 103.99 16.4879 105.17 13.9147C105.99 12.0955 106.735 10.2024 107.432 8.36681C107.817 7.36705 108.202 6.36728 108.604 5.36751C108.801 4.87582 108.973 4.32677 109.145 3.72855C109.402 2.68819 109.822 1.6952 110.39 0.786621C110.59 0.861772 110.765 0.989137 110.898 1.15538C111.767 2.14696 112.636 5.03973 111.841 13.2099L111.775 13.8737C111.513 16.7009 110.702 25.3464 107.563 25.8135L107.317 25.8545Z" fill="white"/>
<path d="M110.571 2.16343C111.087 3.20417 111.726 5.95762 111.021 13.1608V13.3329L110.972 13.8492C110.087 23.2569 108.383 24.9122 107.44 25.0597H107.317C106.713 24.9884 106.123 24.8311 105.564 24.5926C105.252 24.4779 104.924 24.3632 104.605 24.273L103.916 24.0927C103.591 24.0195 103.27 23.9236 102.958 23.8059C102.4 23.5519 101.999 23.0602 101.188 21.8555C103.195 19.9134 104.81 16.7092 105.924 14.2835C106.744 12.4397 107.498 10.5303 108.202 8.68649C108.579 7.70312 108.973 6.68696 109.366 5.70359C109.579 5.17092 109.768 4.58909 109.94 4.06463C110.117 3.44081 110.33 2.82788 110.579 2.22899M110.087 0C108.858 1.18005 108.448 3.54836 107.85 5.12995C106.703 7.96535 105.703 10.8663 104.433 13.6444C103.343 16.0208 101.302 20.2002 98.9832 21.5523C100.425 23.7076 101.065 24.7811 102.261 25.3383C102.871 25.5622 103.495 25.7456 104.129 25.8874C105.146 26.2992 106.212 26.5748 107.301 26.7069C107.426 26.7194 107.553 26.7194 107.678 26.7069C111.652 26.0841 112.333 16.6354 112.595 13.5214C112.824 11.1285 113.98 0.114727 110.03 0H110.087Z" fill="#8C6338"/>
<path d="M143.497 63.1983C141.793 63.1983 138.818 60.3383 137.474 57.4619C138.779 55.9392 140.222 54.5402 141.785 53.2826C143.063 52.2331 144.278 51.1085 145.423 49.9145L146.57 48.7099C147.39 47.8331 148.275 46.9316 149.029 45.9646C149.432 45.4134 149.788 44.8296 150.094 44.2191C150.451 43.4061 150.96 42.669 151.594 42.0475C151.76 41.9064 151.961 41.813 152.176 41.7771C152.421 41.9738 152.889 43.7193 151.799 49.218C151.099 52.9189 149.584 56.4179 147.365 59.4615L147.144 59.7565C146.374 60.8054 144.768 62.977 143.686 63.1573C143.625 63.1779 143.561 63.1917 143.497 63.1983V63.1983Z" fill="white"/>
<path d="M151.668 43.2112C151.636 48.8443 149.924 54.3398 146.751 58.9943L146.529 59.2975C145.087 61.2479 144.071 62.2805 143.596 62.3788H143.522C142.35 62.3788 139.81 60.0842 138.466 57.593C139.662 56.2747 140.958 55.0501 142.342 53.93C143.645 52.859 144.885 51.7125 146.054 50.4963C146.423 50.0948 146.8 49.6769 147.185 49.2999C148.004 48.4149 148.922 47.497 149.717 46.4973C150.149 45.9075 150.53 45.2825 150.856 44.6289C151.103 44.1417 151.377 43.6684 151.676 43.2112M152.2 40.9822C151.82 41.0113 151.457 41.1541 151.159 41.3919C150.037 42.1622 149.291 44.3748 148.414 45.4893C147.324 46.8578 146.03 48.0953 144.833 49.39C142.276 52.1599 138.744 54.3889 136.532 57.38C137.761 60.3465 141.154 64.026 143.505 64.026H143.85C145.366 63.7719 147.128 61.2233 148.045 60.0105C150.326 56.8738 151.888 53.2728 152.618 49.4638C152.839 48.3493 154.323 41.015 152.2 41.015V40.9822Z" fill="#8C6338"/>
<path d="M46.0366 25.8465C42.8652 25.576 41.4639 17.0371 40.9968 14.2262L40.8903 13.5789C39.5299 5.4742 40.1937 2.53226 40.9886 1.48332C41.1143 1.3118 41.2804 1.1739 41.4721 1.08179C42.1029 1.9458 42.5899 2.90603 42.9143 3.92538C43.1356 4.49083 43.3405 5.02348 43.5781 5.50697C44.0452 6.46577 44.496 7.44095 44.9467 8.40794C45.7662 10.1944 46.6348 12.03 47.5936 13.7919C48.9457 16.2504 50.9453 19.6266 53.1907 21.1672C52.2401 22.8472 51.732 23.7076 50.8797 24.1665C50.5352 24.3358 50.1759 24.4729 49.8062 24.5763L49.167 24.7893C48.8884 24.8959 48.5852 25.027 48.2738 25.1663C47.6138 25.5092 46.8977 25.7312 46.1595 25.8219L46.0366 25.8465Z" fill="white"/>
<path d="M41.3901 2.44207C41.6765 3.02319 41.931 3.61957 42.1522 4.22853C42.3652 4.77758 42.5865 5.35122 42.8406 5.86749C43.3077 6.81809 43.7666 7.80966 44.2091 8.76026C45.0286 10.5549 45.8972 12.4069 46.8724 14.1852C48.1508 16.5289 49.9864 19.6102 52.1253 21.413C51.3959 22.675 51.0272 23.1831 50.4863 23.4781C50.181 23.618 49.8661 23.7357 49.5439 23.8305C49.3144 23.9042 49.085 23.978 48.8719 24.0599C48.6589 24.1419 48.2409 24.314 47.9377 24.4451C47.3777 24.7363 46.7745 24.9356 46.1512 25.0351H46.1021C43.8895 24.8467 42.4554 18.1105 41.7998 14.1033L41.7179 13.587V13.4477C40.5132 6.31821 40.9558 3.52378 41.4065 2.45026M41.7424 0.188501C37.8089 0.581851 39.7265 11.4891 40.1035 13.8656C40.6197 16.9387 41.9473 26.3299 45.9546 26.6741H46.1512C47.2248 26.6741 48.4622 25.9612 49.4292 25.5924C50.0502 25.41 50.658 25.1855 51.2484 24.9204C52.4285 24.2812 52.9857 23.1667 54.2723 20.9131C51.863 19.6921 49.5439 15.7013 48.2819 13.3985C46.8232 10.727 45.635 7.8998 44.2911 5.14635C43.5453 3.61392 43.0044 1.2784 41.7015 0.180298L41.7424 0.188501Z" fill="#8C6338"/>
<path d="M14.8144 63.1984C14.7463 63.2065 14.6775 63.2065 14.6095 63.1984C13.5278 63.0181 11.9216 60.8465 11.1513 59.7975L10.93 59.5025C8.71536 56.4696 7.2037 52.9817 6.50483 49.2918C5.40672 43.7603 5.87383 42.0148 6.14426 41.8018C6.34281 41.8701 6.53047 41.9667 6.7015 42.0886C7.33357 42.7085 7.84245 43.4426 8.20116 44.252C8.50227 44.8677 8.85884 45.4547 9.26647 46.0057C10.0368 46.9727 10.9054 47.8741 11.7249 48.7509L12.8722 49.9556C14.0171 51.1495 15.2321 52.2742 16.5107 53.3236C18.073 54.5812 19.5159 55.9803 20.8212 57.503C19.4936 60.3384 16.5189 63.1984 14.8144 63.1984Z" fill="white"/>
<path d="M6.64414 43.2029C6.94119 43.6641 7.2147 44.14 7.46362 44.6288C7.79025 45.2825 8.17125 45.9075 8.60266 46.4972C9.42214 47.497 10.2826 48.4148 11.1349 49.2998C11.52 49.7014 11.897 50.1193 12.2658 50.4963C13.435 51.7124 14.6745 52.8589 15.978 53.9299C17.3618 55.05 18.6577 56.2747 19.8542 57.593C18.5102 60.0514 15.9698 62.3788 14.7979 62.3788H14.7242C14.2243 62.2804 13.2327 61.2479 11.7905 59.2975L11.5692 58.9943C8.39095 54.3392 6.67853 48.8394 6.65229 43.2029M6.12787 40.9821C4.00541 40.9821 5.48866 48.3165 5.70992 49.431C6.44031 53.2399 8.00162 56.841 10.2826 59.9777C11.1841 61.1905 12.9623 63.7391 14.4784 63.9931C14.593 64.0012 14.708 64.0012 14.8225 63.9931C17.1744 63.9931 20.5589 60.3137 21.7963 57.3471C19.5837 54.356 16.06 52.1271 13.495 49.3572C12.2985 48.0624 11.0365 46.825 9.91386 45.4565C9.03702 44.3502 8.27487 42.1786 7.16857 41.3591C6.87059 41.1212 6.50802 40.9785 6.12787 40.9493V40.9821Z" fill="#8C6338"/>
<path d="M25.7626 97.7968C27.7809 99.1005 29.4392 100.891 30.5847 103.003C31.7303 105.115 32.3265 107.481 32.3184 109.884C31.8841 178.368 25.8691 246.68 20.1492 314.992H139.072C133.819 231.446 127.952 138.132 126.19 110.253C126.034 107.762 126.531 105.274 127.63 103.034C128.73 100.793 130.394 98.8782 132.459 97.4772C134.488 96.1591 136.441 94.7283 138.31 93.1913C145.374 86.701 149.93 74.0729 148.685 64.4522C147.8 57.6013 144.21 52.1599 138.589 49.218C135.77 47.7116 132.623 46.9261 129.427 46.9317C125.888 46.9575 122.402 47.7987 119.241 49.3901C121.126 41.8345 120.708 32.9431 117.79 26.4447C114.947 20.1511 109.94 16.0209 103.695 14.8162C102.482 14.5853 101.25 14.4674 100.016 14.4639C89.0183 14.4639 81.1676 23.4781 76.7752 33.0906C72.391 23.4945 64.5322 14.4966 53.5512 14.4966C52.3164 14.4994 51.0846 14.6174 49.8717 14.849C43.6273 16.0537 38.6203 20.1838 35.7767 26.4692C33.0806 32.4269 32.4987 40.4496 33.9164 47.5873C32.0742 47.0615 30.1696 46.7859 28.2538 46.7678C25.1731 46.8109 22.1473 47.5892 19.428 49.0377C13.7654 51.9223 10.1023 57.2735 9.11075 64.108C7.72583 73.7123 12.0937 86.406 19.0675 93.011C21.1959 94.746 23.4321 96.3445 25.7626 97.7968V97.7968Z" fill="white"/>
<path d="M139.072 314.992C134.647 245.246 129.828 168.616 127.337 129.027C127.263 129.126 127.198 129.232 127.132 129.339L125.321 128.626L124.42 128.265L123.871 129.085C123.379 129.798 122.879 130.502 122.379 131.207C122.191 131.475 121.916 131.668 121.6 131.755C121.285 131.842 120.949 131.816 120.65 131.682L119.831 131.314L118.938 130.912L118.356 131.732L116.889 133.698C116.69 133.962 116.404 134.148 116.082 134.223C115.76 134.298 115.422 134.257 115.127 134.108L114.242 133.666L113.357 133.215L112.742 133.993L111.284 135.813C111.077 136.072 110.785 136.251 110.459 136.315C110.133 136.38 109.795 136.326 109.505 136.165L108.547 135.632L107.678 135.141L107.03 135.911C106.555 136.468 106.08 137.034 105.605 137.55C105.387 137.806 105.085 137.976 104.753 138.03C104.421 138.084 104.081 138.018 103.794 137.845L102.777 137.222L101.917 136.698L101.245 137.443L99.8436 138.984C99.6185 139.234 99.3108 139.395 98.9767 139.438C98.6427 139.48 98.3046 139.4 98.0244 139.213L96.9508 138.5L96.1314 137.935L95.4266 138.664C94.9677 139.14 94.517 139.615 94.0581 140.082C93.8232 140.323 93.5099 140.472 93.1747 140.502C92.8395 140.532 92.5047 140.441 92.2307 140.246L91.0834 139.426L90.2639 138.828L89.5346 139.541C89.1002 139.976 88.6577 140.361 88.2152 140.828C87.9713 141.063 87.6512 141.203 87.313 141.222C86.9748 141.242 86.6407 141.14 86.3714 140.934L85.1749 140.008L84.3554 139.385L83.6015 140.074L82.3149 141.237C82.063 141.463 81.7387 141.591 81.4006 141.599C81.0625 141.606 80.7328 141.493 80.4711 141.278L79.2501 140.221L78.4306 139.566L77.6111 140.23L76.3819 141.278C76.1258 141.5 75.7986 141.622 75.46 141.622C75.1214 141.622 74.7942 141.5 74.5381 141.278L73.2433 140.131L72.4812 139.451L71.6617 140.09L70.4816 141.024C70.2151 141.233 69.8827 141.34 69.5446 141.325C69.2064 141.31 68.8848 141.174 68.6378 140.942L67.3021 139.672L66.5646 138.968L65.7451 139.574L64.6224 140.393C64.3505 140.594 64.0156 140.69 63.6787 140.665C63.3417 140.639 63.0252 140.494 62.7867 140.254L61.41 138.861L60.697 138.132L59.8776 138.714L58.8205 139.435C58.5418 139.625 58.2041 139.709 57.8687 139.671C57.5334 139.634 57.2227 139.477 56.993 139.23C56.5259 138.722 56.0506 138.222 55.5835 137.706L54.8952 136.96L54.0757 137.501L53.0841 138.132C52.7995 138.31 52.4607 138.38 52.1287 138.331C51.7967 138.281 51.4932 138.115 51.273 137.861C50.7895 137.312 50.3142 136.763 49.8389 136.222L49.1834 135.46L47.3969 136.501C47.1051 136.671 46.7625 136.732 46.4299 136.673C46.1067 136.607 45.8167 136.43 45.6104 136.173C45.1188 135.583 44.6352 134.985 44.1517 134.378L43.5208 133.6L41.7998 134.518C41.5034 134.675 41.1605 134.722 40.8329 134.649V134.649C40.5061 134.577 40.2156 134.391 40.0134 134.124L38.5219 132.158L37.9237 131.338L36.3995 132.076C36.1995 132.175 35.9793 132.226 35.7562 132.226C35.533 132.226 35.3129 132.175 35.1129 132.076L34.8343 131.928C34.6468 131.822 34.4846 131.677 34.3589 131.502C33.9082 130.879 33.4658 130.256 33.0232 129.625L32.4578 128.806L32.0399 128.978C30.7451 191.062 25.3201 253.015 20.1328 315L139.072 314.992Z" fill="#FBB03B"/>
<path d="M29.0077 195.43C29.5486 194.766 29.7289 194.02 30.2534 193.471C30.3668 193.395 30.4736 193.31 30.5729 193.217C34.9653 188.857 39.1201 186.038 43.6846 184.35C45.0122 183.859 46.4053 183.465 47.782 183.088C49.8074 182.586 51.7846 181.906 53.6905 181.056C56.4685 179.72 58.2878 177.958 59.0909 175.803C59.3861 174.861 59.5001 173.871 59.4268 172.886C59.3749 172.079 59.4496 171.269 59.6481 170.485C60.0497 169.214 61.2871 168.452 62.4589 167.715C63.0287 167.374 63.5737 166.993 64.0897 166.576C65.2206 165.584 67.7118 162.986 66.3351 160.307C64.9583 157.627 60.738 157.07 57.9026 156.627L57.0831 156.496C52.7137 155.727 48.2255 155.983 43.9715 157.242C40.9476 158.143 38.5465 158.774 35.3013 158.594C34.0899 158.473 32.8684 158.498 31.6629 158.668C31.6629 158.594 31.6629 158.528 31.6629 158.455C31.4633 158.541 31.269 158.64 31.081 158.75C30.8925 158.873 30.5975 159.102 30.2615 159.381C29.7644 171.591 29.1443 183.801 28.4013 196.011C28.6231 195.839 28.8263 195.644 29.0077 195.43V195.43Z" fill="#8C6338"/>
<path d="M21.698 306.256V305.887C21.8133 305.779 21.9053 305.648 21.9684 305.502C22.6404 303.962 24.935 303.159 26.9673 302.446C27.7604 302.186 28.5375 301.879 29.2946 301.528L29.5978 301.38C31.4416 300.471 33.6952 299.332 34.4082 297.094C35.031 295.029 34.0312 293.497 32.9741 292.276C32.7386 292.029 32.4837 291.802 32.2119 291.596C31.7871 291.315 31.4336 290.939 31.1794 290.498C31.0009 289.793 30.9871 289.057 31.1392 288.347C31.2912 287.636 31.605 286.97 32.0562 286.4C32.5985 285.708 33.1814 285.049 33.8017 284.425C34.5528 283.676 35.2459 282.87 35.875 282.016L36.4323 281.197C37.9155 279.041 39.0956 277.329 41.4393 275.944C44.1873 274.48 47.1365 273.431 50.1913 272.83L52.8055 272.231C57.2962 271.232 61.9345 270.191 65.7369 267.478C68.4576 265.536 70.2194 262.988 70.5718 260.472C70.7026 259.514 70.6293 258.539 70.3568 257.611C70.0842 256.683 69.6185 255.823 68.9902 255.088C67.367 253.187 65.203 251.826 62.7867 251.187C60.8822 250.65 58.936 250.275 56.9684 250.064C56.2484 250.008 55.525 250.008 54.805 250.064C53.6086 250.13 52.24 250.204 51.5271 249.819C49.757 248.835 50.0438 247.991 50.4782 246.705C50.9089 245.767 50.9902 244.706 50.7076 243.714C49.9701 241.665 47.8066 241.058 45.7907 240.731C45.2253 240.649 44.5369 240.567 43.7748 240.485C40.7919 240.149 36.2848 239.665 35.5145 237.674C35.1457 236.732 35.6619 235.445 37.0387 233.863C37.6893 233.167 38.3759 232.505 39.0956 231.88C41.8081 229.422 45.1761 226.365 44.0125 223.054C42.5866 218.859 36.6371 219.227 31.8513 219.522C30.3439 219.66 28.8271 219.66 27.3197 219.522C27.2327 219.51 27.1444 219.51 27.0574 219.522C27.0574 219.457 27.0574 219.4 27.0574 219.334H26.8689C24.894 247.967 22.5093 276.452 20.1492 304.56C20.0754 305.379 20.0017 306.297 19.9361 307.166H19.9771C20.6056 306.98 21.1907 306.671 21.698 306.256V306.256Z" fill="#8C6338"/>
<path d="M132.344 212.032V212.172C130.263 215.392 126.78 216.695 121.076 216.376L117.995 216.187C114.414 215.958 110.726 215.728 107.03 215.859C100.737 216.089 93.3533 216.605 86.3549 218.711L85.601 218.941C82.4542 219.858 77.1932 221.399 76.218 224.808C76.0672 225.287 76.0243 225.793 76.0923 226.29C76.1604 226.788 76.3376 227.264 76.6114 227.684C78.0864 229.979 82.274 231.036 85.5191 231.528L87.1581 231.757C88.5266 231.937 89.9443 232.134 91.3128 232.454C94.1974 233.142 95.6315 234.224 96.9918 236.74C98.3522 239.255 100.27 240.567 103.4 241.066C106.044 241.387 108.715 241.418 111.365 241.157C112.292 241.099 113.218 241.042 114.127 241.009C120.617 240.788 125.28 242.484 128.837 246.352C131.123 248.811 133.287 251.744 132.025 254.408C131.262 256.047 129.386 256.776 127.526 257.415C126.223 257.858 124.862 258.235 123.551 258.554C121.298 259.049 119.101 259.774 116.995 260.718C115.652 261.33 114.463 262.238 113.519 263.373C112.574 264.508 111.897 265.841 111.538 267.273C111.304 268.487 111.356 269.738 111.689 270.929C112.022 272.119 112.626 273.216 113.455 274.132C115.299 276.304 117.97 277.943 121.65 279.14L122.388 279.377C124.666 280.098 127.788 281.082 127.985 283.712C128.075 284.958 127.46 285.564 126.747 286.269C126.206 286.739 125.766 287.313 125.452 287.957C124.174 290.883 127.173 293.054 128.616 294.103C128.911 294.311 129.214 294.508 129.525 294.693C129.905 294.918 130.271 295.164 130.623 295.431C132.09 296.619 132.762 298.225 133.475 299.93L133.737 300.561C134.221 301.615 134.768 302.638 135.376 303.626C136.226 304.957 136.922 306.381 137.45 307.87C137.45 307.977 137.45 308.092 137.45 308.198L137.654 308.42C138.19 308.922 138.798 309.342 139.457 309.665L133.336 211.188C133.225 211.264 133.121 211.349 133.024 211.442L132.344 212.032Z" fill="#8C6338"/>
<path d="M128.034 157.643C127.639 158.026 127.271 158.437 126.936 158.873C125.452 160.839 123.374 162.276 121.011 162.97C117.426 164.189 114.068 165.992 111.07 168.305C110.556 168.657 110.148 169.143 109.891 169.711C109.634 170.279 109.537 170.906 109.612 171.525C109.899 173.82 112.464 176.237 114.775 177.262C115.064 177.38 115.363 177.476 115.668 177.549C116.651 177.835 118.307 178.302 118.602 179.122C118.65 179.319 118.65 179.525 118.601 179.722C118.553 179.919 118.457 180.101 118.323 180.253C118.035 180.521 117.682 180.707 117.299 180.794C116.876 180.889 116.477 181.071 116.127 181.326C115.307 182.146 114.635 183.416 116.127 185.153C117.348 186.53 119.019 186.702 120.626 186.866C121.795 186.886 122.943 187.181 123.977 187.726C124.882 188.363 125.653 189.17 126.247 190.103C126.582 190.577 126.94 191.033 127.321 191.471C127.794 191.992 128.298 192.484 128.829 192.947C129.96 193.971 131.025 194.93 131.467 196.47C131.515 196.632 131.599 196.781 131.713 196.905C131.713 197.044 131.713 197.191 131.754 197.331C131.95 197.562 132.186 197.757 132.451 197.904L129.869 156.832C129.271 157.053 128.657 157.266 128.034 157.463C128.058 157.561 128.026 157.561 128.034 157.643Z" fill="#8C6338"/>
<path d="M100.638 54.8971C95.7216 54.8971 89.3788 52.0044 86.8303 48.5871C86.3594 48.0586 86.0228 47.4245 85.8488 46.7384C85.6748 46.0523 85.6685 45.3345 85.8305 44.6454C88.1906 36.6965 93.632 28.1493 100.016 28.1493C100.492 28.1514 100.966 28.198 101.433 28.2886C103.818 28.7475 105.662 30.3619 106.891 33.0908C109.587 39.0566 108.53 48.1774 105.932 52.6272C104.834 54.5038 102.45 54.8971 100.638 54.8971Z" fill="#FFC9C9"/>
<path d="M100.016 28.9522C100.442 28.9529 100.867 28.9941 101.286 29.0751C103.4 29.4767 105.047 30.9436 106.203 33.4184C108.727 38.999 107.801 47.9478 105.285 52.2664C104.375 53.8152 102.277 54.1348 100.679 54.1348C95.9675 54.1348 89.9361 51.3978 87.5104 48.1526C87.1122 47.7167 86.8252 47.191 86.6739 46.6202C86.5227 46.0495 86.5117 45.4507 86.6418 44.8747C87.7794 40.9338 89.614 37.2285 92.0585 33.9347C93.8286 31.6647 96.6558 28.9604 100.057 28.9604M100.057 27.3624C92.9764 27.3624 87.4285 36.5898 85.1094 44.424C83.4704 49.9391 93.5418 55.7001 100.679 55.7001C103.318 55.7001 105.555 54.8806 106.662 53.0367C110.759 46.0957 110.8 29.2718 101.622 27.5099C101.106 27.4129 100.582 27.3635 100.057 27.3624V27.3624Z" fill="#8C6338"/>
<path d="M52.9202 54.9298C51.1174 54.9298 48.7327 54.5365 47.6346 52.6599C45.0122 48.2101 43.9797 39.0893 46.6758 33.1235C47.905 30.3946 49.7406 28.7802 52.1335 28.3213C52.6006 28.2303 53.0753 28.1837 53.5512 28.182C59.935 28.182 65.3763 36.7292 67.7282 44.6781C67.892 45.3665 67.8874 46.0842 67.7148 46.7703C67.5422 47.4565 67.2066 48.0909 66.7366 48.6198C64.1799 52.0371 57.8535 54.9298 52.9202 54.9298Z" fill="#FFC9C9"/>
<path d="M53.5511 27.387V28.985C56.952 28.985 59.7792 31.6892 61.5493 33.9592C63.9909 37.2537 65.8227 40.9589 66.9578 44.8993C67.0879 45.4752 67.0769 46.074 66.9257 46.6448C66.7744 47.2155 66.4874 47.7413 66.0892 48.1772C63.6307 51.4551 57.6321 54.1594 52.9119 54.1594C51.273 54.1594 49.2243 53.8398 48.3147 52.291C45.7989 48.0133 44.8728 39.0646 47.3886 33.4839C48.5113 31.0255 50.1503 29.5422 52.3055 29.1406C52.7241 29.0596 53.1494 29.0184 53.5757 29.0177V27.4197M53.5757 27.4197C53.0474 27.4196 52.5204 27.4717 52.0023 27.5755C42.8323 29.3373 42.8897 46.1531 46.9707 53.0941C48.0688 54.9707 50.306 55.7574 52.9447 55.7574C60.0906 55.7574 70.1538 50.021 68.5149 44.4813C66.1957 36.6471 60.6478 27.4197 53.5757 27.4197V27.4197Z" fill="#8C6338"/>
<path d="M32.2365 87.3319C31.3601 87.3581 30.4984 87.1025 29.7781 86.6026C25.5659 83.6033 20.9031 75.6953 20.9359 69.1559C20.9359 66.1648 21.9684 63.9358 23.9598 62.5427C25.2753 61.6315 26.8422 61.1531 28.4423 61.1741C34.2852 61.1741 40.9394 66.5335 44.8729 71.1144C46.4381 72.9501 45.5285 75.7281 44.8729 77.2114C42.4882 82.4151 36.3421 87.3319 32.2365 87.3319Z" fill="#FFC9C9"/>
<path d="M28.4833 61.9774C31.9661 61.9774 38.2023 64.5096 44.3074 71.6391C45.5858 73.1305 44.7664 75.5644 44.1599 76.8837C41.8736 81.8416 36.0799 86.529 32.2365 86.529C31.5393 86.5511 30.8531 86.3501 30.278 85.9554C26.2379 83.0708 21.739 75.3021 21.7717 69.156C21.7717 66.4436 22.6896 64.4358 24.4597 63.1984C25.6397 62.3797 27.0472 61.9526 28.4833 61.9774ZM28.4833 60.3384C26.7275 60.3184 25.0091 60.8454 23.5664 61.8463C15.9125 67.2057 22.8207 82.53 29.3765 87.2092C30.22 87.8014 31.2307 88.1087 32.2611 88.086C39.4069 88.086 50.0028 75.7938 45.5367 70.5573C41.0705 65.3209 34.3754 60.3384 28.5079 60.3384H28.4833Z" fill="#8C6338"/>
<path d="M125.428 87.3319C121.33 87.3319 115.176 82.4151 112.783 77.2114C112.095 75.7281 111.185 72.9501 112.783 71.1144C116.708 66.5335 123.363 61.1741 129.173 61.1741C130.773 61.1531 132.34 61.6315 133.655 62.5427C135.655 63.9358 136.671 66.1648 136.679 69.1559C136.679 75.7117 132.049 83.6033 127.837 86.6026C127.13 87.0978 126.283 87.3533 125.42 87.3319H125.428Z" fill="#FFC9C9"/>
<path d="M129.181 61.9774C130.617 61.9526 132.025 62.3797 133.205 63.1984C134.975 64.4358 135.884 66.4763 135.893 69.156C135.893 75.2776 131.426 83.0872 127.386 85.9554C126.811 86.3501 126.125 86.5511 125.428 86.529C121.584 86.529 115.791 81.8416 113.504 76.8837C112.898 75.5644 112.078 73.1305 113.357 71.6391C119.462 64.5096 125.698 61.9774 129.181 61.9774M129.181 60.3384C123.314 60.3384 116.536 65.4356 112.152 70.5573C107.768 75.6791 118.282 88.086 125.428 88.086C126.458 88.1087 127.469 87.8014 128.312 87.2092C134.868 82.53 141.776 67.2057 134.122 61.8463C132.68 60.8454 130.961 60.3184 129.206 60.3384H129.181Z" fill="#8C6338"/>
<path d="M100.999 113.121C98.385 113.121 95.6479 111.802 92.4765 110.277C88.5594 108.384 84.1178 106.246 78.8322 106.246C73.5465 106.246 69.105 108.384 65.1879 110.277C62.0165 111.802 59.2794 113.121 56.6652 113.121C54.0511 113.121 51.8549 111.777 49.6259 108.892C47.61 106.27 49.4292 94.9613 54.9033 83.6853C57.9518 77.4081 66.3761 62.7968 78.8404 62.6738H78.9797C91.0096 62.6738 99.4667 77.1786 102.515 83.4231C108.12 94.822 110.054 106.27 108.038 108.892C105.809 111.777 103.58 113.121 100.999 113.121Z" fill="#FFC9C9"/>
<path d="M78.9878 63.477C90.5671 63.477 98.7947 77.6704 101.794 83.7673C107.53 95.4777 108.989 106.352 107.399 108.409C104.695 111.916 102.482 112.326 100.999 112.326C98.5406 112.326 95.9019 111.04 92.8042 109.556C88.8052 107.631 84.2735 105.459 78.8076 105.459C73.3416 105.459 68.8099 107.647 64.819 109.556C61.7378 111.04 59.0827 112.326 56.6242 112.326C55.1737 112.326 52.9284 111.916 50.2241 108.409C48.6343 106.352 49.9618 95.5842 55.5753 84.0296C58.5582 77.8917 66.8022 63.5917 78.8076 63.477H78.9469M78.9469 61.879H78.7993C57.4027 62.0839 44.2828 103.304 48.9621 109.409C51.5516 112.761 54.0511 113.949 56.6324 113.949C62.8523 113.949 69.5147 107.065 78.7584 107.065C88.0021 107.065 94.7055 113.949 100.884 113.949C103.466 113.949 105.965 112.761 108.555 109.409C113.226 103.345 99.6551 61.879 78.8649 61.879H78.9469Z" fill="#8C6338"/>
<path d="M25.3283 98.4606C27.2369 99.6903 28.804 101.382 29.8842 103.379C30.9643 105.376 31.5226 107.614 31.5072 109.884C31.0892 174.894 25.5496 240.845 20.1984 304.625C19.9088 308.067 19.6193 311.523 19.3297 314.992H20.9687C21.2528 311.577 21.5259 308.166 21.7882 304.757C27.1476 240.944 32.6872 174.959 33.1052 109.892C33.1218 107.355 32.4973 104.854 31.2897 102.622C30.082 100.39 28.3303 98.4992 26.197 97.1248C21.8045 94.2649 20.1656 93.0274 19.5755 92.4292C12.7739 85.9881 8.50438 73.5812 9.85652 64.2227C10.8071 57.6669 14.3227 52.5123 19.7559 49.7425C24.0742 47.582 29.0475 47.1256 33.687 48.4641C33.8175 48.4938 33.9533 48.4911 34.0826 48.4563C34.2118 48.4214 34.3305 48.3554 34.4283 48.264C34.5261 48.1727 34.6001 48.0587 34.6437 47.9322C34.6874 47.8056 34.6993 47.6703 34.6786 47.5381C33.2527 40.2693 33.9246 32.5498 36.4732 26.9118C39.2103 20.8558 44.0124 16.8895 49.9946 15.7423C51.159 15.5209 52.3414 15.4084 53.5266 15.4063C66.3597 15.4063 73.5383 28.0754 76.0213 33.525C76.0872 33.6632 76.1903 33.7802 76.3192 33.8628C76.4482 33.9453 76.5976 33.9901 76.7507 33.9921C76.9024 33.9886 77.0501 33.9431 77.1774 33.8606C77.3047 33.7782 77.4066 33.662 77.4718 33.525C79.9303 28.0673 87.1335 15.3735 99.9911 15.3735C101.174 15.3712 102.354 15.4837 103.515 15.7095C109.505 16.8568 114.307 20.823 117.036 26.879C119.765 32.935 120.355 41.6296 118.446 49.259C118.41 49.4072 118.417 49.5625 118.464 49.7072C118.512 49.852 118.599 49.9806 118.716 50.0785C118.833 50.1646 118.97 50.2183 119.114 50.2341C119.258 50.2499 119.403 50.2274 119.536 50.1686C125.87 47.0628 132.533 46.9727 138.122 49.9228C143.506 52.7746 146.947 57.9701 147.8 64.5505C149.012 73.9417 144.522 86.2667 137.671 92.6095C135.839 94.1193 133.924 95.5255 131.934 96.8216C129.762 98.3067 128.012 100.329 126.853 102.691C125.694 105.053 125.166 107.675 125.321 110.302L138.253 314.992H139.851L126.968 110.204C126.825 107.854 127.294 105.507 128.33 103.392C129.366 101.278 130.932 99.4684 132.877 98.141C134.942 96.8028 136.928 95.3472 138.826 93.7814V93.7814C146.062 87.1272 150.725 74.1958 149.48 64.3456C148.554 57.2325 144.825 51.6109 138.966 48.5133C133.369 45.5631 126.747 45.4075 120.413 48.0626C121.961 40.4824 121.281 32.2466 118.561 26.2152C115.602 19.6594 110.366 15.3981 103.884 14.1443C102.623 13.8995 101.341 13.776 100.057 13.7755C87.3794 13.7755 79.9549 25.068 76.8163 31.3452C73.6695 25.0843 66.2449 13.8083 53.5922 13.8083C52.303 13.7992 51.0159 13.9145 49.7488 14.1525C43.2421 15.4063 38.0303 19.6922 35.0719 26.2234C32.5316 31.8451 31.794 39.3761 32.9413 46.6039C28.2423 45.5187 23.3114 46.1191 19.0101 48.3002C13.1098 51.3077 9.29108 56.872 8.26673 63.9687C6.84084 73.8024 11.3234 86.7994 18.4611 93.5601C20.6299 95.3559 22.9249 96.9936 25.3283 98.4606V98.4606Z" fill="#8C6338"/>
</svg>
